<?xml version="1.0" encoding="UTF-8" standalone="no"?>
<!-- Created with Inkscape (http://www.inkscape.org/) -->

<svg
   xmlns:dc="http://purl.org/dc/elements/1.1/"
   xmlns:cc="http://creativecommons.org/ns#"
   xmlns:rdf="http://www.w3.org/1999/02/22-rdf-syntax-ns#"
   xmlns:svg="http://www.w3.org/2000/svg"
   xmlns="http://www.w3.org/2000/svg"
   xmlns:xlink="http://www.w3.org/1999/xlink"
   xmlns:sodipodi="http://sodipodi.sourceforge.net/DTD/sodipodi-0.dtd"
   xmlns:inkscape="http://www.inkscape.org/namespaces/inkscape"
   width="440.45984"
   height="335.67184"
   id="svg2"
   version="1.1"
   inkscape:version="0.48.4 r9939"
   sodipodi:docname="logo5.svg"
   inkscape:export-filename="/home/william/Bureau/OpenDataBFC/logo5.png"
   inkscape:export-xdpi="90"
   inkscape:export-ydpi="90">
  <defs
     id="defs4">
    <linearGradient
       id="linearGradient3945">
      <stop
         style="stop-color:#787878;stop-opacity:1;"
         offset="0"
         id="stop3947" />
      <stop
         style="stop-color:#bbbbbb;stop-opacity:1;"
         offset="1"
         id="stop3949" />
    </linearGradient>
    <inkscape:perspective
       inkscape:vp_x="0 : 961.01868 : 1"
       inkscape:vp_y="0 : 1000 : 0"
       inkscape:vp_z="2000 : 961.01868 : 1"
       id="perspective2786"
       sodipodi:type="inkscape:persp3d"
       inkscape:persp3d-origin="1000 : 640.67912 : 1" />
    <inkscape:perspective
       inkscape:vp_x="0 : 961.01868 : 1"
       inkscape:vp_y="0 : 1000 : 0"
       inkscape:vp_z="2000 : 961.01868 : 1"
       id="perspective319"
       sodipodi:type="inkscape:persp3d"
       inkscape:persp3d-origin="1000 : 640.67912 : 1" />
    <inkscape:perspective
       inkscape:vp_x="0 : 961.01868 : 1"
       inkscape:vp_y="0 : 1000 : 0"
       inkscape:vp_z="2000 : 961.01868 : 1"
       id="perspective229"
       sodipodi:type="inkscape:persp3d"
       inkscape:persp3d-origin="1000 : 640.67912 : 1" />
    <clipPath
       clipPathUnits="userSpaceOnUse"
       id="clipPath3941">
      <path
         sodipodi:type="star"
         style="fill:#84b32f;fill-opacity:1;stroke:none"
         id="path3943"
         sodipodi:sides="101"
         sodipodi:cx="178.797"
         sodipodi:cy="700.8291"
         sodipodi:r1="215.23894"
         sodipodi:r2="221.89581"
         sodipodi:arg1="0.59431565"
         sodipodi:arg2="0.62542053"
         inkscape:flatsided="false"
         inkscape:rounded="1.78"
         inkscape:randomized="0"
         d="m 357.12932,821.3504 c -9.48273,14.03136 11.4769,-4.34466 1.56238,9.385 -9.91452,13.72966 0.9366,-11.94597 -9.40011,1.46872 -10.33672,13.41468 11.72481,-3.62275 0.9759,9.46398 -10.74891,13.08672 1.67746,-11.86463 -9.47324,0.88147 -11.15071,12.7461 11.92735,-2.88681 0.38564,9.50635 -11.54172,12.39315 2.41183,-11.73739 -9.50972,0.29082 -11.92156,12.02821 12.08375,-2.13971 -0.20611,9.51193 -12.28987,11.65163 3.13688,-11.56474 -9.50941,-0.30096 -12.64628,11.26379 12.19341,-1.38432 -0.79706,9.48072 -12.99047,10.86504 3.84979,-11.34736 -9.4723,-0.89157 -13.32209,10.45578 12.25588,-0.62359 -1.38494,9.41282 -13.64081,10.03641 4.54781,-11.08606 -9.39854,-1.47874 -13.94635,9.60733 12.27094,0.13957 -1.96745,9.30852 -14.23839,9.16895 5.22822,-10.78188 -9.28844,-2.06018 -14.51665,8.7217 12.23853,0.90217 -2.54235,9.16819 -14.78087,8.26602 5.88842,-10.43599 -9.14238,-2.63365 -15.0308,7.80234 12.15876,1.66129 -3.10742,8.9924 -15.26618,7.33111 6.52583,-10.04972 -8.96096,-3.19694 -15.4868,6.85279 12.03196,2.41399 -3.66046,8.78182 -15.69243,6.36783 7.13799,-9.62457 -8.74488,-3.74785 -15.88287,5.87672 11.85861,3.15734 -4.19935,8.53726 -16.05795,5.37992 7.72254,-9.16219 -8.49496,-4.28427 -16.2175,4.87792 11.63938,3.88848 -4.72197,8.25968 -16.36136,4.37119 8.27721,-8.66436 -8.21218,-4.80411 -16.48939,3.86024 11.37512,4.60457 -5.22634,7.95013 -16.60147,3.34556 8.79985,-8.133 -7.89762,-5.30536 -16.69748,2.82764 11.06685,5.30285 -5.7105,7.60983 -16.77734,2.30699 9.28847,-7.57019 -7.55251,-5.78609 -16.84097,1.78409 10.71577,5.98061 -6.17254,7.24009 -16.88831,1.25948 9.74113,-6.97808 -7.17818,-6.24443 -16.91932,0.73364 10.32322,6.63524 -6.61072,6.84234 -16.93395,0.2071 10.15611,-6.35898 -6.77609,-6.67862 -16.93219,-0.31964 9.89075,7.2642 -7.02331,6.41812 -16.91407,-0.84607 10.5318,-5.71528 -6.34777,-7.08697 -16.87957,-1.37169 9.42,7.86505 -7.40874,5.96907 -16.82875,-1.89598 10.86674,-5.04947 -5.8949,-7.4679 -16.76164,-2.41843 8.91281,8.43547 -7.76551,5.49693 -16.67831,-2.93855 11.15965,-4.36412 -5.41921,-7.81994 -16.57886,-3.45582 8.37114,8.97326 -8.09223,5.00351 -16.46336,-3.96975 11.40938,-3.66188 -4.92256,-8.14172 -16.33195,-4.47984 7.79708,9.47634 -8.38765,4.49074 -16.184718,-4.98559 11.61497,-2.94548 -4.40687,-8.432 -16.021846,-5.48653 7.19286,9.94274 -8.65061,3.9606 -15.843459,-5.98215 11.77562,-2.21769 -3.874135,-8.68967 -15.649755,-6.47198 6.560805,10.37069 -8.8801,3.41513 -15.440906,-6.95555 11.890711,-1.48131 -3.326409,-8.91371 -15.217122,-7.4324 5.903374,10.75851 -9.07524,2.85645 -14.978614,-7.90205 11.959802,-0.7392 -2.765813,-9.10327 -14.725616,-8.36407 5.223102,11.10471 -9.235269,2.28673 -14.458371,-8.81799 11.982623,0.006 -2.194516,-9.25762 -14.17714,-9.26337 4.522623,11.40795 -9.359569,1.70815 -13.882192,-9.6998 11.959085,0.75071 -1.614728,-9.37614 -13.573815,-10.12684 3.804646,11.66706 -9.44766,1.12297 -13.252304,-10.54409 11.889281,1.49274 -1.028693,-9.45839 -12.917975,-10.95113 3.07195,11.88102 -9.499198,0.53343 -12.571147,-11.34758 11.773479,2.22901 -0.438679,-9.50404 -12.212159,-11.73306 2.327369,12.04901 -9.513986,-0.0582 -11.8413544,-12.10718 11.612128,2.95665 0.153033,-9.51293 -11.4590962,-12.46959 1.573784,12.1704 -9.491967,-0.64953 -11.06574955,-12.81993 11.405852,3.67285 0.744152,-9.48502 -10.66169942,-13.15787 0.814111,12.2447 -9.4332237,-1.23838 -10.247334,-13.48309 11.1554477,4.37484 1.3323928,-9.42041 -9.8230559,-13.79525 0.051287,12.27163 -9.3379866,-1.82245 -9.3892735,-14.09407 10.8618861,5.05992 1.9154785,-9.31935 -8.946408,-14.37926 -0.7117345,12.25108 -9.206622,-2.39946 -8.494887,-14.65054 10.5263018,5.72541 2.491154,-9.18223 -8.035149,-14.90765 -1.472003,12.18313 -9.03964,-2.9672 -7.567636,-15.15032 10.1499939,6.36875 3.057191,-9.0096 -7.092802,-15.37834 -2.226575,12.06805 -8.837683,-3.52344 -6.611107,-15.59149 9.734417,6.98745 3.611401,-8.80211 -6.123017,-15.78955 -2.972535,11.90628 -8.601537,-4.06606 -5.629001,-15.97234 9.28118,7.57911 4.151639,-8.56056 -5.129541,-16.13968 -3.706994,11.69844 -8.332112,-4.59296 -4.625118,-16.2914 8.792035,8.14146 4.675815,-8.28589 -4.116221,-16.42736 -4.427111,11.44535 -8.030452,-5.10208 -3.603341,-16.54742 8.268875,8.67232 5.1819,-7.97917 -3.086975,-16.65149 -5.1301,11.14798 -7.697723,-5.59145 -2.567623,-16.73944 7.713726,9.1696 5.667939,-7.64159 -2.045787,-16.81119 -5.813243,10.80748 -7.335215,-6.0592 -1.521971,-16.86668 7.128734,9.63143 6.13205,-7.27442 -0.996684,-16.90586 -6.473895,10.42516 -6.944327,-6.50351 -0.470432,-16.92868 6.516161,10.05599 6.572436,-6.87913 0.05628,-16.93512 -7.109501,10.00252 -6.526573,-6.92266 0.582928,-16.92517 5.878379,10.44165 6.987395,-6.45721 1.109017,-16.89886 -7.717601,9.54118 -6.083569,-7.31502 1.634032,-16.85619 5.217855,10.78691 7.375322,-6.01032 2.157467,-16.79722 -8.295844,9.04292 -5.617029,-7.67908 2.678815,-16.722 4.537143,11.09043 7.734714,-5.54017 3.197571,-16.6306 -8.841991,8.50968 -5.128758,-8.01344 3.713234,-16.52311 3.838879,11.35105 8.064183,-5.04859 4.225304,-16.39964 -9.353931,7.94352 -4.620644,-8.31679 4.733286,-16.2603 3.125762,11.56776 8.362452,-4.53747 5.23669,-16.10523 -9.829682,7.34661 -4.094654,-8.58797 5.735027,-15.93458 2.400552,11.73971 8.628368,-4.00881 6.227817,-15.74851 -10.267403,6.7213 -3.552822,-8.82591 6.71458,-15.54721 1.666055,11.86624 8.860904,-3.46463 7.1948494,-15.33087 -10.665403,6.06997 -2.997246,-9.02972 7.668156,-15.09969 0.925113,11.94686 9.0591586,-2.90705 8.1340461,-14.85391 -11.0221406,5.39517 -2.4300736,-9.19859 8.592065,-14.59376 0.180591,11.98126 9.2223645,-2.33822 9.0417739,-14.31949 -11.3362345,4.69949 -1.8535003,-9.33188 9.4827336,-14.03136 -0.5646284,11.96932 9.3498917,-1.76035 9.9145211,-13.72966 -11.6064713,3.98563 -1.2697557,-9.42905 10.3367148,-13.41468 -1.3076642,11.91106 9.4412458,-1.17566 10.74891,-13.08673 -11.83180526,3.25635 -0.681099,-9.48976 11.150705,-12.7461 -2.0456409,11.80672 9.496073,-0.58643 11.541714,-12.39315 -12.0113637,2.51447 -0.08981,-9.51374 11.921556,-12.02821 -2.775703,11.65671 9.514162,0.005 12.289866,-11.65163 -12.144453,1.76287 0.501833,-9.50092 12.646284,-11.26378 -3.495027,11.4616 9.495442,0.59656 12.99047,-10.86504 -12.230557,1.00444 1.091531,-9.45135 13.322087,-10.45578 -4.200829,11.22214 9.439987,1.18573 13.640817,-10.03641 -12.269344,0.24213 1.677006,-9.3652 13.946348,-9.60732 -4.89038,10.93927 9.348009,1.77032 14.238391,-9.16895 -12.260662,-0.52113 2.255993,-9.24283 14.516655,-8.7217 -5.561009,10.61407 9.219868,2.34805 14.780877,-8.26601 -12.204548,-1.28235 2.826252,-9.08469 15.030798,-7.80233 -6.210125,10.24781 9.056054,2.91671 15.266184,-7.33111 -12.101215,-2.03863 3.385577,-8.89141 15.486787,-6.85279 -6.835214,9.8419 8.857207,3.47407 15.69242,-6.36783 -11.951067,-2.78701 3.9318,-8.66373 15.88287,-5.87672 -7.433857,9.39793 8.62409,4.01801 16.05796,-5.37993 -11.754677,-3.52462 4.46282,-8.40254 16.2175,-4.87792 -8.00374,8.91759 8.35761,4.54639 16.36136,-4.3712 -11.51282,-4.24858 4.97657,-8.10883 16.48939,-3.86024 -8.54266,8.40275 8.0588,5.05719 16.60146,-3.34556 -11.22642,-4.95611 5.47106,-7.78375 16.69748,-2.82764 -9.04853,7.8554 7.72881,5.54841 16.77734,-2.30698 -10.89658,-5.64446 5.94439,-7.42856 16.84097,-1.78409 -9.5194,7.27766 7.36891,6.01818 16.88831,-1.25948 -10.52459,-6.31098 6.39473,-7.04463 16.91931,-0.73365 -9.95344,6.67176 6.98051,6.46466 16.93394,-0.2071 -10.11188,-6.95308 6.82031,-6.63344 16.9322,0.31964 -10.34896,6.04005 6.5651,6.88612 16.91407,0.84608 -9.66004,-7.56828 7.21953,-6.19659 16.87957,1.37169 -10.70445,5.38498 6.12429,7.28096 16.82874,1.89598 -9.17084,-8.15421 7.5908,-5.73578 16.76164,2.41844 -11.01853,4.70908 5.65979,7.64762 16.67832,2.93855 -8.64616,-8.70858 7.9327,-5.25276 16.57887,3.45582 -11.28997,4.01495 5.1734,7.9847 16.46336,3.96974 -8.08803,-9.22927 8.24392,-4.74943 16.33194,4.47984 -11.51774,3.30528 4.66698,8.29087 16.18472,4.9856 -7.4986,-9.71424 8.52324,-4.22771 16.02185,5.48652 -11.70095,2.58283 4.14252,8.56498 15.84346,5.98214 -6.88017,-10.16164 8.76959,-3.68965 15.64975,6.47198 -11.83889,1.85039 3.60202,8.80595 15.4409,6.95555 -6.23511,-10.56972 8.98201,-3.13732 15.21712,7.43241 -11.93103,1.1108 3.04759,9.01286 14.97861,7.90205 -5.56594,-10.9369 9.15968,-2.57284 14.72562,8.36407 -11.97701,0.3669 2.48137,9.18489 14.45837,8.81799 -4.87523,-11.26178 9.30191,-1.9984 14.17714,9.26337 -11.97664,-0.37842 1.90555,9.32138 13.88219,9.6998 -4.16565,-11.54308 9.40816,-1.41624 13.57382,10.12684 -11.92995,-1.12227 1.32235,9.42182 13.25231,10.54409 -3.43996,-11.77973 9.47802,-0.8286 12.91797,10.95113 -11.83711,-1.86178 0.73404,9.4858 12.57115,11.34759 -2.70097,-11.9708 9.51119,-0.23775 12.21216,11.73306 -11.69846,-2.59408 0.14289,9.51309 11.84136,12.10718 -1.95152,-12.11557 9.50758,0.35402 11.45909,12.46958 -11.51456,-3.31636 -0.44881,9.50357 11.06575,12.81993 -1.19453,-12.21346 9.46717,0.94441 10.6617,13.15787 -11.28611,-4.02579 -1.03877,9.45729 10.24733,13.48308 -0.43291,-12.2641 9.39015,1.53116 9.82305,13.79525 -11.014,-4.71967 -1.62473,9.37441 9.38928,14.09407 0.33039,-12.26729 9.2768,2.11197 8.9464,14.37926 -10.69927,-5.39527 -2.20439,9.25527 8.49489,14.65054 1.0924,-12.22301 9.12755,2.68463 8.03515,14.90764 -10.34315,-6.05 -2.77552,9.10032 7.56764,15.15032 1.85019,-12.13146 8.94299,3.24689 7.0928,15.37834 -9.94702,-6.68133 -3.33591,8.91016 6.61111,15.59149 2.60082,-11.99296 8.72383,3.79659 6.12302,15.78956 -9.5124,-7.2868 -3.8834,8.68554 5.62901,15.97234 3.34138,-11.80808 8.47093,4.3316 5.12954,16.13968 -9.04098,-7.86409 -4.41587,8.42731 4.62512,16.2914 4.06902,-11.5775 8.18524,4.84986 4.11622,16.42735 -8.53458,-8.41096 -4.93124,8.13647 3.60334,16.54742 4.78092,-11.30214 7.86789,5.34935 3.08698,16.65148 -7.99516,-8.92528 -5.42754,7.81416 2.56762,16.73943 5.47432,-10.98305 7.52011,5.82814 2.04578,16.81119 -7.42483,-9.40507 -5.90285,7.46162 1.52197,16.86668 6.14654,-10.62147 7.14322,6.28439 0.99669,16.90586 -6.82575,-9.84847 -6.35531,7.0802 0.47043,16.92868 6.79498,-10.21878 6.7387,6.71633 -0.0563,16.93512 -6.20026,-10.25377 -6.78319,6.6714 -0.58293,16.92518 7.41714,-9.77658 6.30812,7.12228 -1.10902,16.89886 -5.5508,-10.61941 -7.18483,6.23679 -1.63404,16.85619 8.01059,-9.29655 5.85313,7.50068 -2.15747,16.79722 -4.87986,-10.94396 -7.55868,5.77804 -2.67881,16.722 8.57307,-8.78055 5.3755,7.85005 -3.19757,16.6306 -4.19004,-11.22617 -7.90327,5.29695 -3.71324,16.52311 9.10236,-8.23058 4.87706,8.16906 -4.22531,16.39964 -3.48401,-11.46495 -8.2173,4.79535 -4.73328,16.2603 9.59645,-7.64876 4.35976,8.45647 -5.23669,16.10523 -2.76449,-11.65937 -8.49952,4.27521 -5.73503,15.93458 10.05341,-7.03736 3.82559,8.71115 -6.22782,15.74852 -2.03429,-11.80868 -8.74887,3.73853 -6.71458,15.54721 10.47147,-6.39873 3.27662,8.93214 -7.19485,15.33087 -1.29621,-11.91231 -8.96437,3.18738 -7.66816,15.0997 10.84902,-5.73534 2.71497,9.11857 -8.13404,14.85391 -0.55312,-11.96985 -9.14518,2.6239 -8.59207,14.59376 11.1846,-5.04977 2.14282,9.26972 -9.04177,14.31949 0.19211,-11.98109 -9.29062,2.05028 z"
         transform="matrix(0.61907159,-0.10548334,0.11047619,0.6317466,89.4357,291.12752)" />
    </clipPath>
    <linearGradient
       inkscape:collect="always"
       xlink:href="#linearGradient3945"
       id="linearGradient3953"
       x1="-47.042107"
       y1="756.92432"
       x2="459.44958"
       y2="1166.8925"
       gradientUnits="userSpaceOnUse" />
    <clipPath
       clipPathUnits="userSpaceOnUse"
       id="clipPath3969">
      <rect
         style="fill:#453000;fill-opacity:1;stroke:none"
         id="rect3971"
         width="171.72594"
         height="148.49243"
         x="-110.34109"
         y="330.70532"
         transform="matrix(0.82671989,-0.56261375,0.56261375,0.82671989,0,0)" />
    </clipPath>
    <clipPath
       clipPathUnits="userSpaceOnUse"
       id="clipPath3969-0">
      <rect
         style="fill:#453000;fill-opacity:1;stroke:none"
         id="rect3971-2"
         width="171.72594"
         height="148.49243"
         x="-110.34109"
         y="330.70532"
         transform="matrix(0.82671989,-0.56261375,0.56261375,0.82671989,0,0)" />
    </clipPath>
  </defs>
  <sodipodi:namedview
     id="base"
     pagecolor="#ffffff"
     bordercolor="#666666"
     borderopacity="1.0"
     inkscape:pageopacity="0.0"
     inkscape:pageshadow="2"
     inkscape:zoom="0.98994949"
     inkscape:cx="211.80918"
     inkscape:cy="90.796468"
     inkscape:document-units="px"
     inkscape:current-layer="svg2"
     showgrid="false"
     inkscape:window-width="1920"
     inkscape:window-height="1030"
     inkscape:window-x="0"
     inkscape:window-y="0"
     inkscape:window-maximized="1"
     showguides="true"
     inkscape:guide-bbox="true"
     fit-margin-top="0"
     fit-margin-left="0"
     fit-margin-right="0"
     fit-margin-bottom="0" />
  <metadata
     id="metadata7">
    <rdf:RDF>
      <cc:Work
         rdf:about="">
        <dc:format>image/svg+xml</dc:format>
        <dc:type
           rdf:resource="http://purl.org/dc/dcmitype/StillImage" />
        <dc:title></dc:title>
      </cc:Work>
    </rdf:RDF>
  </metadata>
  <flowRoot
     xml:space="preserve"
     id="flowRoot4306"
     style="font-size:40px;font-style:normal;font-weight:normal;line-height:125%;letter-spacing:0px;word-spacing:0px;fill:#000000;fill-opacity:1;stroke:none;font-family:Sans"
     transform="translate(-182.075,-552.49555)"><flowRegion
       id="flowRegion4308"><rect
         id="rect4310"
         width="671.75146"
         height="469.72095"
         x="5.0507627"
         y="161.40764" /></flowRegion><flowPara
       id="flowPara4312" /></flowRoot>  <path
     style="fill:#750000;fill-opacity:1;stroke:none"
     d="m 354.618,219.4754 85.84184,0 -40,31.8198 40,31.81981 -85.84184,0 z"
     id="rect3959-6"
     inkscape:connector-curvature="0"
     sodipodi:nodetypes="cccccc" />
  <path
     style="fill:#750000;fill-opacity:1;stroke:none"
     d="m 85.84184,219.75002 -85.84184,0 40,31.8198 -40,31.81981 85.84184,0 z"
     id="rect3959-6-7"
     inkscape:connector-curvature="0"
     sodipodi:nodetypes="cccccc" />
  <path
     sodipodi:type="star"
     style="fill:#490000;fill-opacity:1;stroke:none"
     id="path3961"
     sodipodi:sides="3"
     sodipodi:cx="151.52287"
     sodipodi:cy="415.96609"
     sodipodi:r1="42.654175"
     sodipodi:r2="39.413769"
     sodipodi:arg1="0.98631818"
     sodipodi:arg2="2.0335158"
     inkscape:flatsided="true"
     inkscape:rounded="0"
     inkscape:randomized="0"
     d="m 175.05792,451.53968 -66.1102,-32.97843 61.61526,-40.7639 z"
     inkscape:transform-center-x="11.453913"
     inkscape:transform-center-y="4.1707263"
     transform="matrix(-0.39739915,0.58394908,-0.58394908,-0.39739915,374.25574,333.97885)"
     clip-path="url(#clipPath3969)" />
  <path
     sodipodi:type="star"
     style="fill:#490000;fill-opacity:1;stroke:none"
     id="path3961-9"
     sodipodi:sides="3"
     sodipodi:cx="151.52287"
     sodipodi:cy="415.96609"
     sodipodi:r1="42.654175"
     sodipodi:r2="39.413769"
     sodipodi:arg1="0.98631818"
     sodipodi:arg2="2.0335158"
     inkscape:flatsided="true"
     inkscape:rounded="0"
     inkscape:randomized="0"
     d="m 175.05792,451.53968 -66.1102,-32.97843 61.61526,-40.7639 z"
     inkscape:transform-center-x="-11.453912"
     inkscape:transform-center-y="4.1707263"
     transform="matrix(0.39739915,0.58394908,0.58394908,-0.39739915,66.06024,333.64725)"
     clip-path="url(#clipPath3969-0)" />
  <g
     id="g3997"
     transform="translate(-172.12734,-524.49555)">
    <path
       transform="matrix(0.75644132,0,0,0.75644132,257.09013,162.18905)"
       d="m 357.12932,821.3504 c -9.48273,14.03136 11.4769,-4.34466 1.56238,9.385 -9.91452,13.72966 0.9366,-11.94597 -9.40011,1.46872 -10.33672,13.41468 11.72481,-3.62275 0.9759,9.46398 -10.74891,13.08672 1.67746,-11.86463 -9.47324,0.88147 -11.15071,12.7461 11.92735,-2.88681 0.38564,9.50635 -11.54172,12.39315 2.41183,-11.73739 -9.50972,0.29082 -11.92156,12.02821 12.08375,-2.13971 -0.20611,9.51193 -12.28987,11.65163 3.13688,-11.56474 -9.50941,-0.30096 -12.64628,11.26379 12.19341,-1.38432 -0.79706,9.48072 -12.99047,10.86504 3.84979,-11.34736 -9.4723,-0.89157 -13.32209,10.45578 12.25588,-0.62359 -1.38494,9.41282 -13.64081,10.03641 4.54781,-11.08606 -9.39854,-1.47874 -13.94635,9.60733 12.27094,0.13957 -1.96745,9.30852 -14.23839,9.16895 5.22822,-10.78188 -9.28844,-2.06018 -14.51665,8.7217 12.23853,0.90217 -2.54235,9.16819 -14.78087,8.26602 5.88842,-10.43599 -9.14238,-2.63365 -15.0308,7.80234 12.15876,1.66129 -3.10742,8.9924 -15.26618,7.33111 6.52583,-10.04972 -8.96096,-3.19694 -15.4868,6.85279 12.03196,2.41399 -3.66046,8.78182 -15.69243,6.36783 7.13799,-9.62457 -8.74488,-3.74785 -15.88287,5.87672 11.85861,3.15734 -4.19935,8.53726 -16.05795,5.37992 7.72254,-9.16219 -8.49496,-4.28427 -16.2175,4.87792 11.63938,3.88848 -4.72197,8.25968 -16.36136,4.37119 8.27721,-8.66436 -8.21218,-4.80411 -16.48939,3.86024 11.37512,4.60457 -5.22634,7.95013 -16.60147,3.34556 8.79985,-8.133 -7.89762,-5.30536 -16.69748,2.82764 11.06685,5.30285 -5.7105,7.60983 -16.77734,2.30699 9.28847,-7.57019 -7.55251,-5.78609 -16.84097,1.78409 10.71577,5.98061 -6.17254,7.24009 -16.88831,1.25948 9.74113,-6.97808 -7.17818,-6.24443 -16.91932,0.73364 10.32322,6.63524 -6.61072,6.84234 -16.93395,0.2071 10.15611,-6.35898 -6.77609,-6.67862 -16.93219,-0.31964 9.89075,7.2642 -7.02331,6.41812 -16.91407,-0.84607 10.5318,-5.71528 -6.34777,-7.08697 -16.87957,-1.37169 9.42,7.86505 -7.40874,5.96907 -16.82875,-1.89598 10.86674,-5.04947 -5.8949,-7.4679 -16.76164,-2.41843 8.91281,8.43547 -7.76551,5.49693 -16.67831,-2.93855 11.15965,-4.36412 -5.41921,-7.81994 -16.57886,-3.45582 8.37114,8.97326 -8.09223,5.00351 -16.46336,-3.96975 11.40938,-3.66188 -4.92256,-8.14172 -16.33195,-4.47984 7.79708,9.47634 -8.38765,4.49074 -16.184718,-4.98559 11.61497,-2.94548 -4.40687,-8.432 -16.021846,-5.48653 7.19286,9.94274 -8.65061,3.9606 -15.843459,-5.98215 11.77562,-2.21769 -3.874135,-8.68967 -15.649755,-6.47198 6.560805,10.37069 -8.8801,3.41513 -15.440906,-6.95555 11.890711,-1.48131 -3.326409,-8.91371 -15.217122,-7.4324 5.903374,10.75851 -9.07524,2.85645 -14.978614,-7.90205 11.959802,-0.7392 -2.765813,-9.10327 -14.725616,-8.36407 5.223102,11.10471 -9.235269,2.28673 -14.458371,-8.81799 11.982623,0.006 -2.194516,-9.25762 -14.17714,-9.26337 4.522623,11.40795 -9.359569,1.70815 -13.882192,-9.6998 11.959085,0.75071 -1.614728,-9.37614 -13.573815,-10.12684 3.804646,11.66706 -9.44766,1.12297 -13.252304,-10.54409 11.889281,1.49274 -1.028693,-9.45839 -12.917975,-10.95113 3.07195,11.88102 -9.499198,0.53343 -12.571147,-11.34758 11.773479,2.22901 -0.438679,-9.50404 -12.212159,-11.73306 2.327369,12.04901 -9.513986,-0.0582 -11.8413544,-12.10718 11.612128,2.95665 0.153033,-9.51293 -11.4590962,-12.46959 1.573784,12.1704 -9.491967,-0.64953 -11.06574955,-12.81993 11.405852,3.67285 0.744152,-9.48502 -10.66169942,-13.15787 0.814111,12.2447 -9.4332237,-1.23838 -10.247334,-13.48309 11.1554477,4.37484 1.3323928,-9.42041 -9.8230559,-13.79525 0.051287,12.27163 -9.3379866,-1.82245 -9.3892735,-14.09407 10.8618861,5.05992 1.9154785,-9.31935 -8.946408,-14.37926 -0.7117345,12.25108 -9.206622,-2.39946 -8.494887,-14.65054 10.5263018,5.72541 2.491154,-9.18223 -8.035149,-14.90765 -1.472003,12.18313 -9.03964,-2.9672 -7.567636,-15.15032 10.1499939,6.36875 3.057191,-9.0096 -7.092802,-15.37834 -2.226575,12.06805 -8.837683,-3.52344 -6.611107,-15.59149 9.734417,6.98745 3.611401,-8.80211 -6.123017,-15.78955 -2.972535,11.90628 -8.601537,-4.06606 -5.629001,-15.97234 9.28118,7.57911 4.151639,-8.56056 -5.129541,-16.13968 -3.706994,11.69844 -8.332112,-4.59296 -4.625118,-16.2914 8.792035,8.14146 4.675815,-8.28589 -4.116221,-16.42736 -4.427111,11.44535 -8.030452,-5.10208 -3.603341,-16.54742 8.268875,8.67232 5.1819,-7.97917 -3.086975,-16.65149 -5.1301,11.14798 -7.697723,-5.59145 -2.567623,-16.73944 7.713726,9.1696 5.667939,-7.64159 -2.045787,-16.81119 -5.813243,10.80748 -7.335215,-6.0592 -1.521971,-16.86668 7.128734,9.63143 6.13205,-7.27442 -0.996684,-16.90586 -6.473895,10.42516 -6.944327,-6.50351 -0.470432,-16.92868 6.516161,10.05599 6.572436,-6.87913 0.05628,-16.93512 -7.109501,10.00252 -6.526573,-6.92266 0.582928,-16.92517 5.878379,10.44165 6.987395,-6.45721 1.109017,-16.89886 -7.717601,9.54118 -6.083569,-7.31502 1.634032,-16.85619 5.217855,10.78691 7.375322,-6.01032 2.157467,-16.79722 -8.295844,9.04292 -5.617029,-7.67908 2.678815,-16.722 4.537143,11.09043 7.734714,-5.54017 3.197571,-16.6306 -8.841991,8.50968 -5.128758,-8.01344 3.713234,-16.52311 3.838879,11.35105 8.064183,-5.04859 4.225304,-16.39964 -9.353931,7.94352 -4.620644,-8.31679 4.733286,-16.2603 3.125762,11.56776 8.362452,-4.53747 5.23669,-16.10523 -9.829682,7.34661 -4.094654,-8.58797 5.735027,-15.93458 2.400552,11.73971 8.628368,-4.00881 6.227817,-15.74851 -10.267403,6.7213 -3.552822,-8.82591 6.71458,-15.54721 1.666055,11.86624 8.860904,-3.46463 7.1948494,-15.33087 -10.665403,6.06997 -2.997246,-9.02972 7.668156,-15.09969 0.925113,11.94686 9.0591586,-2.90705 8.1340461,-14.85391 -11.0221406,5.39517 -2.4300736,-9.19859 8.592065,-14.59376 0.180591,11.98126 9.2223645,-2.33822 9.0417739,-14.31949 -11.3362345,4.69949 -1.8535003,-9.33188 9.4827336,-14.03136 -0.5646284,11.96932 9.3498917,-1.76035 9.9145211,-13.72966 -11.6064713,3.98563 -1.2697557,-9.42905 10.3367148,-13.41468 -1.3076642,11.91106 9.4412458,-1.17566 10.74891,-13.08673 -11.83180526,3.25635 -0.681099,-9.48976 11.150705,-12.7461 -2.0456409,11.80672 9.496073,-0.58643 11.541714,-12.39315 -12.0113637,2.51447 -0.08981,-9.51374 11.921556,-12.02821 -2.775703,11.65671 9.514162,0.005 12.289866,-11.65163 -12.144453,1.76287 0.501833,-9.50092 12.646284,-11.26378 -3.495027,11.4616 9.495442,0.59656 12.99047,-10.86504 -12.230557,1.00444 1.091531,-9.45135 13.322087,-10.45578 -4.200829,11.22214 9.439987,1.18573 13.640817,-10.03641 -12.269344,0.24213 1.677006,-9.3652 13.946348,-9.60732 -4.89038,10.93927 9.348009,1.77032 14.238391,-9.16895 -12.260662,-0.52113 2.255993,-9.24283 14.516655,-8.7217 -5.561009,10.61407 9.219868,2.34805 14.780877,-8.26601 -12.204548,-1.28235 2.826252,-9.08469 15.030798,-7.80233 -6.210125,10.24781 9.056054,2.91671 15.266184,-7.33111 -12.101215,-2.03863 3.385577,-8.89141 15.486787,-6.85279 -6.835214,9.8419 8.857207,3.47407 15.69242,-6.36783 -11.951067,-2.78701 3.9318,-8.66373 15.88287,-5.87672 -7.433857,9.39793 8.62409,4.01801 16.05796,-5.37993 -11.754677,-3.52462 4.46282,-8.40254 16.2175,-4.87792 -8.00374,8.91759 8.35761,4.54639 16.36136,-4.3712 -11.51282,-4.24858 4.97657,-8.10883 16.48939,-3.86024 -8.54266,8.40275 8.0588,5.05719 16.60146,-3.34556 -11.22642,-4.95611 5.47106,-7.78375 16.69748,-2.82764 -9.04853,7.8554 7.72881,5.54841 16.77734,-2.30698 -10.89658,-5.64446 5.94439,-7.42856 16.84097,-1.78409 -9.5194,7.27766 7.36891,6.01818 16.88831,-1.25948 -10.52459,-6.31098 6.39473,-7.04463 16.91931,-0.73365 -9.95344,6.67176 6.98051,6.46466 16.93394,-0.2071 -10.11188,-6.95308 6.82031,-6.63344 16.9322,0.31964 -10.34896,6.04005 6.5651,6.88612 16.91407,0.84608 -9.66004,-7.56828 7.21953,-6.19659 16.87957,1.37169 -10.70445,5.38498 6.12429,7.28096 16.82874,1.89598 -9.17084,-8.15421 7.5908,-5.73578 16.76164,2.41844 -11.01853,4.70908 5.65979,7.64762 16.67832,2.93855 -8.64616,-8.70858 7.9327,-5.25276 16.57887,3.45582 -11.28997,4.01495 5.1734,7.9847 16.46336,3.96974 -8.08803,-9.22927 8.24392,-4.74943 16.33194,4.47984 -11.51774,3.30528 4.66698,8.29087 16.18472,4.9856 -7.4986,-9.71424 8.52324,-4.22771 16.02185,5.48652 -11.70095,2.58283 4.14252,8.56498 15.84346,5.98214 -6.88017,-10.16164 8.76959,-3.68965 15.64975,6.47198 -11.83889,1.85039 3.60202,8.80595 15.4409,6.95555 -6.23511,-10.56972 8.98201,-3.13732 15.21712,7.43241 -11.93103,1.1108 3.04759,9.01286 14.97861,7.90205 -5.56594,-10.9369 9.15968,-2.57284 14.72562,8.36407 -11.97701,0.3669 2.48137,9.18489 14.45837,8.81799 -4.87523,-11.26178 9.30191,-1.9984 14.17714,9.26337 -11.97664,-0.37842 1.90555,9.32138 13.88219,9.6998 -4.16565,-11.54308 9.40816,-1.41624 13.57382,10.12684 -11.92995,-1.12227 1.32235,9.42182 13.25231,10.54409 -3.43996,-11.77973 9.47802,-0.8286 12.91797,10.95113 -11.83711,-1.86178 0.73404,9.4858 12.57115,11.34759 -2.70097,-11.9708 9.51119,-0.23775 12.21216,11.73306 -11.69846,-2.59408 0.14289,9.51309 11.84136,12.10718 -1.95152,-12.11557 9.50758,0.35402 11.45909,12.46958 -11.51456,-3.31636 -0.44881,9.50357 11.06575,12.81993 -1.19453,-12.21346 9.46717,0.94441 10.6617,13.15787 -11.28611,-4.02579 -1.03877,9.45729 10.24733,13.48308 -0.43291,-12.2641 9.39015,1.53116 9.82305,13.79525 -11.014,-4.71967 -1.62473,9.37441 9.38928,14.09407 0.33039,-12.26729 9.2768,2.11197 8.9464,14.37926 -10.69927,-5.39527 -2.20439,9.25527 8.49489,14.65054 1.0924,-12.22301 9.12755,2.68463 8.03515,14.90764 -10.34315,-6.05 -2.77552,9.10032 7.56764,15.15032 1.85019,-12.13146 8.94299,3.24689 7.0928,15.37834 -9.94702,-6.68133 -3.33591,8.91016 6.61111,15.59149 2.60082,-11.99296 8.72383,3.79659 6.12302,15.78956 -9.5124,-7.2868 -3.8834,8.68554 5.62901,15.97234 3.34138,-11.80808 8.47093,4.3316 5.12954,16.13968 -9.04098,-7.86409 -4.41587,8.42731 4.62512,16.2914 4.06902,-11.5775 8.18524,4.84986 4.11622,16.42735 -8.53458,-8.41096 -4.93124,8.13647 3.60334,16.54742 4.78092,-11.30214 7.86789,5.34935 3.08698,16.65148 -7.99516,-8.92528 -5.42754,7.81416 2.56762,16.73943 5.47432,-10.98305 7.52011,5.82814 2.04578,16.81119 -7.42483,-9.40507 -5.90285,7.46162 1.52197,16.86668 6.14654,-10.62147 7.14322,6.28439 0.99669,16.90586 -6.82575,-9.84847 -6.35531,7.0802 0.47043,16.92868 6.79498,-10.21878 6.7387,6.71633 -0.0563,16.93512 -6.20026,-10.25377 -6.78319,6.6714 -0.58293,16.92518 7.41714,-9.77658 6.30812,7.12228 -1.10902,16.89886 -5.5508,-10.61941 -7.18483,6.23679 -1.63404,16.85619 8.01059,-9.29655 5.85313,7.50068 -2.15747,16.79722 -4.87986,-10.94396 -7.55868,5.77804 -2.67881,16.722 8.57307,-8.78055 5.3755,7.85005 -3.19757,16.6306 -4.19004,-11.22617 -7.90327,5.29695 -3.71324,16.52311 9.10236,-8.23058 4.87706,8.16906 -4.22531,16.39964 -3.48401,-11.46495 -8.2173,4.79535 -4.73328,16.2603 9.59645,-7.64876 4.35976,8.45647 -5.23669,16.10523 -2.76449,-11.65937 -8.49952,4.27521 -5.73503,15.93458 10.05341,-7.03736 3.82559,8.71115 -6.22782,15.74852 -2.03429,-11.80868 -8.74887,3.73853 -6.71458,15.54721 10.47147,-6.39873 3.27662,8.93214 -7.19485,15.33087 -1.29621,-11.91231 -8.96437,3.18738 -7.66816,15.0997 10.84902,-5.73534 2.71497,9.11857 -8.13404,14.85391 -0.55312,-11.96985 -9.14518,2.6239 -8.59207,14.59376 11.1846,-5.04977 2.14282,9.26972 -9.04177,14.31949 0.19211,-11.98109 -9.29062,2.05028 z"
       inkscape:randomized="0"
       inkscape:rounded="1.78"
       inkscape:flatsided="false"
       sodipodi:arg2="0.62542053"
       sodipodi:arg1="0.59431565"
       sodipodi:r2="221.89581"
       sodipodi:r1="215.23894"
       sodipodi:cy="700.8291"
       sodipodi:cx="178.797"
       sodipodi:sides="101"
       id="path3872"
       style="fill:url(#linearGradient3953);fill-opacity:1;stroke:none"
       sodipodi:type="star" />
    <path
       style="fill:#323232;fill-opacity:1;stroke:none"
       inkscape:connector-curvature="0"
       d="m 504.29436,621.03256 c -0.0929,-0.49532 -0.26201,-0.71081 -0.79688,-1.01623 -0.56818,-0.3244 -0.67983,-0.4771 -0.67983,-0.93948 0,-0.3062 -0.14104,-0.68913 -0.3151,-0.85965 -0.17247,-0.16935 -0.4178,-0.57828 -0.54455,-0.90928 -0.34534,-0.90152 -0.49802,-1.03136 -1.21194,-1.03136 -0.44652,0 -0.81547,0.13657 -1.16548,0.4306 -0.29223,0.24613 -0.62593,0.38719 -0.77708,0.32908 -0.42904,-0.16479 -0.9085,-1.29532 -0.94145,-2.22086 -0.0388,-1.08094 0.4988,-2.69251 0.97246,-2.91537 0.19306,-0.0907 0.40384,-0.32285 0.46897,-0.51548 0.20657,-0.61393 0.10464,-1.8573 -0.19884,-2.42045 -0.24068,-0.44689 -0.25851,-0.64377 -0.0997,-1.09956 0.17329,-0.49766 0.1458,-0.61471 -0.26664,-1.13175 -0.28255,-0.35424 -0.8139,-0.71236 -1.37669,-0.92785 -0.50425,-0.19267 -1.27321,-0.62285 -1.70923,-0.95617 -0.43602,-0.33254 -0.93018,-0.6054 -1.098,-0.6054 -0.16817,0 -0.52442,-0.10899 -0.79185,-0.24224 -0.26743,-0.133 -0.98987,-0.3872 -1.60422,-0.5647 l -1.11735,-0.32246 -0.62132,-1.17592 c -0.34184,-0.64688 -0.67322,-1.09182 -0.73678,-0.98913 -0.16656,0.26938 -0.88716,-0.0404 -1.76312,-0.7581 -0.52942,-0.43368 -0.73988,-0.7422 -0.77902,-1.14066 -0.0481,-0.48988 -0.15727,-0.58832 -1.05153,-0.94646 -1.03133,-0.41315 -1.94021,-0.95074 -3.12773,-1.84915 -0.37831,-0.28604 -1.13951,-0.75229 -1.6922,-1.03598 -0.94454,-0.48489 -1.48791,-1.09842 -1.48791,-1.67981 0,-0.12942 -0.34614,-0.54609 -0.76859,-0.92592 l -0.76857,-0.69065 -0.63409,0.35887 c -0.42593,0.24073 -0.82052,0.69651 -1.20073,1.38447 -0.54415,0.98599 -0.60616,1.03715 -1.6069,1.31892 -0.57246,0.16162 -1.30963,0.46008 -1.63831,0.66278 -0.331,0.20425 -0.7333,0.32478 -0.90114,0.26934 -0.39377,-0.1301 -1.47123,-1.77976 -1.35689,-2.07702 0.0481,-0.12601 -0.0295,-0.32636 -0.17251,-0.44494 -0.14303,-0.11873 -0.41083,-0.51123 -0.59493,-0.87209 -0.26355,-0.51664 -0.43448,-0.65655 -0.80386,-0.6585 -0.54106,-8.4e-4 -0.73792,-0.12092 -1.00344,-0.59918 -0.31238,-0.56315 -1.33791,-0.62556 -2.58284,-0.15688 -0.96815,0.36434 -1.15769,0.38331 -2.02046,0.20231 -0.94064,-0.19723 -0.95964,-0.19346 -1.63597,0.34999 -0.37633,0.30231 -0.75964,0.54997 -0.85191,0.54997 -0.0918,0 -0.19685,0.0873 -0.23217,0.19348 -0.0353,0.10624 -0.29337,0.19267 -0.57321,0.19148 -0.27985,-6.6e-4 -0.64919,0.072 -0.8209,0.16242 -0.4895,0.25814 -1.20848,-0.2845 -1.07631,-0.81238 0.11928,-0.47477 -0.27752,-0.76664 -1.04144,-0.76664 -0.95149,0 -2.1034,-1.66464 -1.35149,-1.95301 0.3341,-0.1282 0.32945,-0.61973 -0.01,-1.10499 -0.14799,-0.21124 -0.22482,-0.52362 -0.17014,-0.69454 0.0626,-0.19844 -0.0538,-0.45348 -0.32284,-0.70618 l -0.42131,-0.39571 -0.47322,0.37208 c -0.37364,0.29416 -0.6744,0.3647 -1.43329,0.33719 -1.49217,-0.0538 -2.92702,0.94842 -2.92702,2.04448 0,0.18633 -0.11625,0.43525 -0.25813,0.55308 -0.14144,0.11792 -0.25772,0.32054 -0.25772,0.45075 0,0.47634 -0.66703,0.92478 -1.37514,0.92478 -0.37829,0 -0.68759,0.0746 -0.68759,0.16597 0,0.0914 -0.22943,0.40074 -0.50966,0.68755 -0.40036,0.40968 -0.65812,0.52168 -1.19994,0.52168 -0.58448,0 -0.70616,-0.0626 -0.79338,-0.4112 -0.0873,-0.34573 -0.17447,-0.39225 -0.54843,-0.29224 -0.30038,0.0803 -0.45461,0.24728 -0.47441,0.51278 -0.0158,0.21664 -0.1301,0.45656 -0.25346,0.53252 -0.14993,0.0926 -0.18794,0.32014 -0.11517,0.68409 0.13176,0.65849 -0.27674,1.55263 -0.70928,1.55263 -0.164,0 -0.53565,-0.0687 -0.82672,-0.15191 -0.43292,-0.12408 -0.56509,-0.0934 -0.72941,0.16973 -0.10996,0.17664 -0.20077,0.40697 -0.20077,0.51161 0,0.10465 -0.16003,0.41549 -0.35542,0.68989 -0.25579,0.35967 -0.3403,0.70228 -0.30075,1.22438 0.051,0.67902 0.0158,0.74492 -0.54689,1.02358 -0.79375,0.39301 -1.25574,0.3872 -1.62435,-0.0197 -0.3837,-0.42437 -1.13407,-0.51663 -1.47204,-0.18179 -0.16042,0.15885 -0.23565,0.47206 -0.19603,0.81584 0.15469,1.35111 -0.22287,1.67627 -1.94684,1.67627 h -1.02748 l -0.20076,1.10734 c -0.22983,1.2705 -0.16975,1.5573 0.32711,1.5573 0.6589,0 0.98368,0.4899 0.98368,1.48366 0,0.79105 -0.0594,0.95385 -0.43833,1.20229 -0.24109,0.15806 -0.40193,0.38213 -0.35775,0.4984 0.0446,0.116 -0.0278,0.4213 -0.16123,0.67829 -0.21084,0.4058 -0.2089,0.51585 0.0139,0.83329 0.29418,0.42013 0.3341,1.19723 0.0857,1.66194 -0.18101,0.3376 -1.26507,0.77942 -1.52243,0.62052 -0.0836,-0.0521 -0.293,0.0608 -0.46431,0.25039 -0.20698,0.22904 -0.51861,0.34107 -0.92554,0.33253 -0.33721,-0.009 -0.98677,0.0241 -1.44299,0.0683 -1.00538,0.097 -1.32862,-0.15965 -1.67356,-1.32862 -0.12984,-0.44029 -0.27749,-0.79727 -0.32789,-0.79336 -0.0504,8.4e-4 -0.43953,0.4647 -0.86469,1.02435 -0.7302,0.96042 -0.81546,1.01781 -1.51275,1.02478 -0.40654,8.4e-4 -0.97437,-0.11475 -1.26194,-0.26357 -0.47054,-0.2434 -0.55192,-0.24419 -0.81511,-0.005 -0.47865,0.43293 -2.01073,0.69183 -2.61496,0.44145 -0.28102,-0.11626 -0.55271,-0.16932 -0.60426,-0.1179 -0.0521,0.0517 -0.10735,0.47633 -0.12449,0.94452 -0.026,0.72129 -0.12984,0.96045 -0.68447,1.57397 -0.54222,0.60079 -0.64417,0.82788 -0.60034,1.34297 0.0139,0.15845 -0.36046,0.82362 -0.5682,1.25459 -0.14184,-0.0803 -0.25077,-0.004 -0.53332,0.26045 -0.36316,0.3407 -0.49415,0.36782 -0.89532,0.18555 -0.25851,-0.11832 -0.55035,-0.42633 -0.64879,-0.68524 -0.15153,-0.39726 -0.25929,-0.4519 -0.693,-0.3492 -0.62207,0.14719 -1.3298,0.75501 -1.55381,1.33521 -0.18595,0.48255 -1.29334,1.0213 -1.74335,0.84841 -0.49146,-0.18871 -1.07086,-1.52435 -0.94723,-2.18285 0.16281,-0.86663 -0.93834,-2.16464 -2.37472,-2.7991 l -1.09066,-0.48176 0.12053,-0.78447 0.12092,-0.78447 -0.35387,0.55735 c -0.77673,1.22319 -1.12206,1.44569 -2.04335,1.31972 -0.46586,-0.0638 -0.92978,-0.19922 -1.03135,-0.3 -0.10107,-0.10148 -0.31355,-0.18575 -0.47169,-0.18794 -0.15805,-8.4e-4 -0.49685,-0.16773 -0.75229,-0.36741 -0.25503,-0.19958 -0.59726,-0.36471 -0.76044,-0.36703 -0.53136,-0.009 -0.97048,-0.68096 -0.84724,-1.29955 0.0952,-0.47635 0.0558,-0.56199 -0.26043,-0.56199 -0.21319,0 -0.4368,-0.17289 -0.52207,-0.40387 -0.14699,-0.39686 -0.15808,-0.39416 -0.65427,0.16281 -0.35153,0.39493 -0.73173,0.59687 -1.25381,0.66702 -0.66625,0.0893 -0.80849,0.0352 -1.28521,-0.48796 -0.70114,-0.76819 -0.81973,-1.16622 -0.49805,-1.66504 0.36974,-0.57362 0.50851,-1.22321 0.29067,-1.3581 -0.10148,-0.0626 -0.13826,-0.29027 -0.0821,-0.50539 0.0562,-0.2155 0.0537,-0.58681 -0.009,-0.82516 -0.0954,-0.37869 -0.20504,-0.42633 -0.86895,-0.37713 -0.66432,0.0492 -0.79066,-0.005 -0.99879,-0.43255 -0.33025,-0.67748 -0.12121,-1.58946 0.39339,-1.71851 0.59222,-0.14877 2.70417,-1.5515 2.83011,-1.88015 0.0678,-0.17605 -0.17665,-0.55696 -0.6554,-1.02167 -0.55075,-0.53446 -0.76354,-0.89221 -0.76354,-1.28326 0,-0.76199 -0.17448,-1.12982 -0.53602,-1.12982 -0.61393,0 -1.13599,-0.54881 -1.13599,-1.19491 0,-0.33952 -0.11162,-0.70967 -0.24843,-0.82322 -0.13684,-0.11352 -0.34808,-0.53797 -0.46977,-0.94377 -0.12093,-0.4054 -0.29458,-0.78292 -0.38448,-0.83833 -0.3178,-0.19683 -0.77439,0.13908 -1.12593,0.82866 -0.46198,0.90615 -0.82359,1.02709 -1.54913,0.5182 -1.19222,-0.83682 -1.33988,-1.4015 -0.5182,-1.98674 0.29299,-0.20852 0.67477,-0.59612 0.84839,-0.86161 0.28992,-0.44223 0.29148,-0.51936 0.0222,-0.93056 -0.26048,-0.39728 -0.41899,-0.44497 -1.38834,-0.4186 -1.78868,0.0492 -2.43399,-0.62594 -1.78907,-1.87319 0.14759,-0.28563 0.2186,-0.70927 0.15806,-0.94104 -0.0993,-0.3806 -0.18871,-0.41082 -0.9232,-0.31006 -1.11236,0.15272 -2.52743,-0.1806 -3.02699,-0.71278 -0.38217,-0.40694 -0.45309,-0.41934 -1.01703,-0.18417 -0.54105,0.22598 -0.67866,0.21435 -1.28251,-0.1094 -0.37208,-0.1996 -1.00654,-0.36274 -1.40924,-0.36274 -0.40309,0 -0.78406,-0.0837 -0.84765,-0.18557 -0.0635,-0.1019 -0.37363,-0.18556 -0.68951,-0.18556 -0.43405,0 -0.81234,0.22441 -1.54488,0.9174 l -0.97012,0.91781 0.43177,0.40579 c 0.2372,0.22288 0.48678,0.65502 0.55385,0.96004 0.19426,0.88484 -0.21163,1.12941 -1.98519,1.19684 -0.9019,0.0344 -2.03131,0.22208 -2.77159,0.46045 l -1.24917,0.40231 -0.67633,-0.39881 c -0.57323,-0.33837 -0.79648,-0.37288 -1.45962,-0.22636 -0.43022,0.095 -1.21468,0.26664 -1.7418,0.38178 -0.67788,0.14796 -1.16389,0.1531 -1.65573,0.0178 -0.57946,-0.16003 -0.73408,-0.14104 -0.91898,0.11161 -0.122,0.16697 -0.18495,0.44688 -0.13865,0.62167 0.15351,0.58682 -0.45851,1.4453 -1.17011,1.64142 -0.3651,0.10064 -0.80385,0.13828 -0.97516,0.0841 -1.06042,-0.33758 -1.42398,-0.57713 -1.98054,-1.30656 -0.55734,-0.72982 -0.63524,-0.77555 -0.74259,-0.43681 -0.24418,0.76895 -1.59297,0.68758 -1.73832,-0.10507 -0.1098,-0.59996 -0.36548,-0.71856 -0.76703,-0.3554 -0.20655,0.18675 -0.37592,0.45232 -0.37592,0.58951 0,0.37439 -1.68288,1.35692 -2.33091,1.3608 -0.62983,0.004 -1.01238,-0.28138 -1.01238,-0.75462 0,-0.17172 -0.1733,-0.35813 -0.38564,-0.41355 -0.30193,-0.0786 -0.42713,0.0179 -0.57516,0.44301 -0.21744,0.62324 -0.1345,0.58602 -1.40304,0.63602 -0.73874,0.0292 -1.04455,-0.0428 -1.27863,-0.30115 -0.29148,-0.32208 -0.33527,-0.32324 -0.8403,-0.0248 -0.41005,0.24224 -0.65112,0.27248 -1.04295,0.13259 -0.30505,-0.10943 -0.91976,-0.12163 -1.53137,-0.0317 -0.56157,0.0833 -1.35576,0.16813 -1.76463,0.1883 -0.71702,0.0364 -0.74184,0.0178 -0.70771,-0.51975 0.0526,-0.84103 0.37827,-2.64522 0.51781,-2.87155 0.068,-0.10997 0.0197,-0.51162 -0.10749,-0.893 l -0.23138,-0.6926 -0.16045,0.61082 c -0.36315,1.37861 -2.06928,1.07864 -2.65996,-0.46744 -0.33757,-0.88406 -0.1709,-1.35071 0.48254,-1.35071 0.18556,0 0.38139,-0.0708 0.43486,-0.15727 0.10818,-0.17486 -0.63796,-0.90577 -1.42204,-1.39179 -0.44417,-0.27556 -0.51042,-0.43448 -0.51042,-1.2267 0,-0.76119 -0.11079,-1.05576 -0.67673,-1.79722 -0.60462,-0.79145 -0.65578,-0.94299 -0.47867,-1.41195 0.17942,-0.47555 0.13769,-0.58447 -0.43758,-1.143 -0.34921,-0.33949 -0.63561,-0.70615 -0.63561,-0.81466 0,-0.13656 -0.17249,-0.13217 -0.55736,0.0139 -0.48446,0.18298 -0.60927,0.15845 -0.95189,-0.18418 -0.47557,-0.47555 -0.51006,-1.24336 -0.0777,-1.72086 0.25154,-0.27866 0.27402,-0.42867 0.10942,-0.73679 -0.23059,-0.4302 -0.61123,-0.53642 -0.45386,-0.12601 0.13987,0.36509 -0.8705,1.44144 -1.42046,1.51273 -0.25038,0.0331 -0.72053,0.16438 -1.04416,0.29262 -0.72477,0.28642 -1.08989,0.051 -1.2798,-0.82553 -0.0706,-0.32481 -0.2678,-0.79959 -0.43911,-1.055 -0.17091,-0.25541 -0.40967,-0.69418 -0.52983,-0.97556 -0.26044,-0.60619 -0.50271,-0.6333 -1.24878,-0.13906 -0.30658,0.20307 -0.67711,0.36974 -0.824,0.37053 -0.35697,8.4e-4 -1.12593,-0.73679 -1.12593,-1.08136 0,-0.15114 0.41781,-0.71663 0.92866,-1.25654 1.02592,-1.08485 1.10459,-1.28599 0.55732,-1.42941 -0.53677,-0.14025 -0.462,-0.84647 0.16974,-1.60844 0.66585,-0.80269 0.50848,-1.26817 -0.60154,-1.78443 -0.69064,-0.32092 -0.77245,-0.42711 -0.74842,-0.96469 0.0218,-0.47208 -0.0903,-0.68834 -0.51042,-0.98793 -0.29612,-0.21087 -0.53836,-0.49689 -0.53836,-0.63642 0,-0.13947 -0.18793,-0.27982 -0.41781,-0.31238 -0.30814,-0.0438 -0.43448,-0.20424 -0.4806,-0.61008 -0.0814,-0.71661 -1.77862,-2.69948 -2.31039,-2.69948 -0.21277,0 -0.65617,-0.0978 -0.98598,-0.21703 -0.54263,-0.19645 -0.65502,-0.16975 -1.18794,0.27865 -0.63215,0.53177 -0.72594,0.56356 -1.04764,0.35308 -0.3244,-0.21199 -0.99764,-1.39915 -0.99764,-1.76154 -3.8e-4,-0.17862 -0.11599,-0.32519 -0.25657,-0.32519 -0.14063,0 -0.36086,-0.12641 -0.48911,-0.28099 -0.32558,-0.39222 -0.74069,-0.0178 -0.74069,0.66895 0,0.31473 -0.13176,0.59611 -0.32517,0.69689 -0.46821,0.24301 -3.33088,0.27519 -3.477,0.0392 -0.21626,-0.34959 -0.90267,-0.20543 -1.43054,0.29998 -0.47985,0.46007 -0.56705,0.47983 -1.22902,0.28177 -0.53293,-0.15964 -0.8527,-0.16044 -1.27127,-8.5e-4 -0.61431,0.23179 -1.41314,0.10349 -1.77589,-0.28524 -0.19485,-0.20852 -0.33564,-0.20619 -0.86043,0.0123 -0.35037,0.14618 -0.85538,0.21199 -1.14375,0.14874 -0.4438,-0.0978 -0.57247,-0.0236 -0.9116,0.52519 -0.48137,0.77905 -0.98328,0.94609 -1.39567,0.46471 -0.24226,-0.28253 -0.44651,-0.331 -0.99649,-0.23448 -0.824,0.14422 -1.18753,0.53836 -1.04026,1.12706 0.0759,0.30351 -0.0598,0.65814 -0.46198,1.205 -0.31357,0.42635 -0.53527,0.83099 -0.49302,0.89922 0.0795,0.12861 0.28101,1.00653 0.3407,1.48597 0.0197,0.15033 0.21741,0.443 0.44144,0.64997 0.27634,0.25618 0.42517,0.6434 0.46394,1.20849 0.051,0.73832 8.5e-4,0.85732 -0.42402,1.06391 -0.32207,0.15547 -0.6806,0.6643 -1.08327,1.53829 -0.60619,1.31545 -1.05308,1.76233 -1.56546,1.56547 -0.1709,-0.0656 -0.39687,0.0744 -0.58719,0.3647 -0.16974,0.25967 -0.4899,0.52671 -0.71043,0.59376 -0.81119,0.24689 -1.44955,1.19259 -0.80501,1.19259 0.13573,0 0.44691,0.21354 0.69224,0.4748 0.27518,0.29299 0.57749,0.44066 0.78909,0.38524 0.18873,-0.0493 0.48758,0.0504 0.66393,0.2213 0.17646,0.17131 0.5244,0.33486 0.77323,0.36355 0.58795,0.0678 1.3147,0.94106 1.22747,1.47591 -0.0388,0.23681 0.0799,0.54611 0.2779,0.72518 0.1895,0.17132 0.34496,0.49221 0.34496,0.71198 0,0.21974 0.12244,0.56238 0.27245,0.76081 0.14995,0.19846 0.2748,0.62594 0.27867,0.95075 0.005,0.61391 0.40736,1.17398 0.84068,1.17398 0.40347,0 1.40612,0.93985 1.35109,1.267 -0.0314,0.18793 0.20774,0.42247 0.64649,0.63176 0.82285,0.39377 0.98253,1.1426 0.29029,1.36273 -0.38874,0.12325 -0.39146,0.13946 -0.0642,0.37905 0.18793,0.13768 0.40542,0.60772 0.48294,1.04454 0.0774,0.43679 0.20152,1.11197 0.27554,1.49991 0.11558,0.60348 0.067,0.77865 -0.33408,1.20733 -0.25812,0.27556 -0.52439,0.68331 -0.59108,0.90579 -0.0666,0.22247 -0.41082,0.57479 -0.7639,0.78328 -0.35307,0.20855 -0.64183,0.46084 -0.64183,0.56202 0,0.10064 -0.28643,0.31895 -0.63718,0.48524 -0.38255,0.18179 -0.71005,0.51121 -0.81896,0.82475 -0.1301,0.37365 -0.38526,0.58876 -0.89532,0.75426 -0.86004,0.27942 -1.06392,0.58484 -1.07553,1.6096 -0.009,0.62867 0.0706,0.81663 0.39959,0.96664 0.51743,0.23603 0.90307,1.51776 0.61782,2.05147 -0.10737,0.20037 -0.32634,0.43796 -0.48682,0.5275 -0.26315,0.14797 -0.26315,0.22748 0.004,0.86623 0.33681,0.80696 0.38061,1.81894 0.10148,2.34139 -0.14223,0.26626 -0.39109,0.35968 -0.95733,0.35968 -0.77362,0 -2.75103,0.79451 -2.75103,1.10536 0,0.29805 -1.24918,0.60619 -1.6294,0.40269 -0.23526,-0.1256 -0.74261,-0.11846 -1.56622,0.0228 -1.04611,0.17941 -1.21702,0.26316 -1.20772,0.59261 0.005,0.21124 -0.0585,0.80113 -0.14262,1.31196 -0.14106,0.85693 -0.12903,0.90849 0.15884,0.66934 0.44148,-0.36626 1.23059,0.006 1.23059,0.58098 3.7e-4,0.29186 0.31742,0.66666 1.02902,1.21625 0.97634,0.75383 1.02205,0.82669 0.90771,1.43636 -0.10624,0.56704 -0.0658,0.66276 0.34533,0.81896 0.53217,0.20234 1.06043,0.87361 1.06043,1.34801 0,0.17665 -0.21165,0.53331 -0.47051,0.79181 -0.44805,0.44844 -0.45697,0.49612 -0.18557,1.02092 0.15648,0.30268 0.28448,0.75963 0.28448,1.01544 0,0.2558 0.18794,0.67286 0.41784,0.92671 1.36619,1.50886 1.36542,1.50574 0.53057,2.48053 -0.40423,0.47206 -0.69765,0.50811 -1.6972,0.20849 -0.58139,-0.17408 -0.77208,-0.15845 -1.13097,0.0926 -0.23721,0.16637 -0.55929,0.30308 -0.71545,0.30348 -0.15591,6.6e-4 -0.52325,0.12601 -0.81549,0.27867 -0.29226,0.15271 -0.65387,0.2775 -0.80191,0.2775 -0.16123,0 0.0993,0.42983 0.64688,1.06779 0.50424,0.58756 0.97555,1.31855 1.04723,1.62512 0.0716,0.30657 0.50503,1.32359 0.96237,2.26036 0.97556,1.99684 1.17089,2.84486 0.73833,3.20376 -0.1632,0.13573 -0.29688,0.4523 -0.29688,0.70382 0,0.56783 -1.13211,3.1836 -1.89566,4.38007 -0.77787,1.21934 -0.60541,1.90417 0.62905,2.49565 0.47633,0.22827 1.17864,0.79761 1.56425,1.26815 0.38489,0.47012 1.05929,1.1015 1.49842,1.40381 1.05692,0.72711 1.23214,1.10927 1.19376,2.60919 -0.0222,0.86974 0.065,1.44877 0.2802,1.86428 0.53951,1.04298 1.55847,4.27811 1.56467,4.96644 0.004,0.36317 0.1286,0.82205 0.27868,1.02051 0.35501,0.46937 0.36082,2.89949 0.01,3.90915 l -0.25771,0.74065 1.04138,0.69144 c 1.59104,1.05693 2.04994,2.25729 1.42979,3.74171 -0.3837,0.91779 -0.3492,1.63791 0.12476,2.61347 l 0.40347,0.83096 -0.57168,1.26392 c -0.79879,1.76502 -0.83444,1.95339 -0.51895,2.70917 0.1535,0.36782 0.33289,1.36506 0.39843,2.21582 0.0999,1.29995 0.0707,1.58635 -0.18419,1.79759 -0.18139,0.15074 -0.3023,0.53061 -0.3023,0.9488 0,0.40658 -0.12119,0.79804 -0.29107,0.93875 -0.82089,0.68135 -1.05383,2.14138 -0.52091,3.26458 0.44805,0.9449 1.75615,1.96656 3.04134,2.37585 1.04106,0.3318 1.19143,0.45386 2.09256,1.70033 0.86316,1.19336 1.77396,1.93557 2.37548,1.93557 0.10149,0 0.45384,-0.24806 0.78291,-0.55115 1.27747,-1.17669 2.63828,-2.06424 3.01304,-1.9658 0.20425,0.0538 0.55075,0.0987 0.76937,0.10012 0.2872,0 0.52051,0.24572 0.83599,0.87439 0.53138,1.0581 0.83602,1.26079 1.6608,1.10228 0.51859,-0.0997 0.72789,-0.29183 1.15071,-1.05809 l 0.51665,-0.93679 1.34065,0.12367 c 1.3387,0.12325 1.87938,0.41549 1.6887,0.91236 -0.05,0.12985 0.15666,0.48332 0.45928,0.78564 0.51897,0.51897 0.54069,0.59919 0.38331,1.43792 -0.30385,1.62744 0.13807,1.63133 1.69915,0.0139 1.28523,-1.33134 1.63831,-1.52009 2.2383,-1.19877 0.36353,0.19424 0.39067,0.18062 0.25424,-0.12901 -0.084,-0.19071 -0.18991,-0.71703 -0.23525,-1.16972 -0.0921,-0.92166 0.30385,-1.44025 0.86971,-1.13756 0.16597,0.0888 0.5275,0.11831 0.80346,0.0656 l 0.50233,-0.0961 -0.36473,-0.71508 c -0.47131,-0.92401 -0.45811,-1.07011 0.16556,-1.82163 0.45853,-0.55271 0.56861,-0.60153 0.92361,-0.41162 0.22211,0.11915 0.40348,0.33332 0.40348,0.47671 0,0.16738 0.25,0.28179 0.69649,0.31823 0.65848,0.0546 0.69764,0.0934 0.71624,0.71625 0.01,0.36199 0.11518,0.83678 0.23217,1.05576 0.11708,0.21821 0.21277,0.60887 0.21277,0.86741 0,0.27983 0.15034,0.55037 0.37168,0.66897 0.20387,0.10941 0.37131,0.36664 0.37131,0.57282 0,0.20542 0.20891,0.56744 0.46433,0.80384 0.25503,0.23644 0.46393,0.56121 0.46393,0.72129 0,0.16003 0.24147,0.46279 0.53678,0.67322 0.31745,0.22599 0.85386,1.02284 1.31353,1.94993 0.64494,1.30111 0.74183,1.63325 0.57129,1.95223 -0.1624,0.30388 -0.15073,0.38373 0.057,0.38373 0.44649,0 0.65461,0.43215 0.88755,1.83946 0.17824,1.08136 0.17607,1.48907 -0.0123,2.01038 -0.27557,0.762 -0.0396,1.05575 0.7081,0.87942 0.27052,-0.0638 0.56859,0.0123 0.77477,0.19961 0.18417,0.16655 0.61318,0.45307 0.95306,0.6364 0.60269,0.32479 0.63565,0.32323 1.29994,-0.0573 0.66859,-0.38292 0.68912,-0.38409 1.06779,-0.0411 0.21278,0.19188 0.38642,0.4562 0.38642,0.5868 0,0.1305 0.16696,0.29029 0.37092,0.355 0.40735,0.12902 0.65422,0.81739 0.5023,1.39878 -0.0697,0.26667 0.038,0.44185 0.381,0.62169 0.43565,0.22829 0.51276,0.21044 0.86547,-0.19763 0.41626,-0.48174 0.60231,-0.50965 2.12082,-0.31859 0.79612,0.10012 1.02983,0.21085 1.19026,0.56357 0.11024,0.24184 0.33721,0.4395 0.50425,0.4395 0.16737,0 0.62401,0.32787 1.01548,0.72864 0.63253,0.64765 0.71003,0.82827 0.69841,1.62474 -0.0157,1.13214 -0.19681,1.92861 -0.52325,2.30456 -0.13985,0.16161 -0.19959,0.34881 -0.13175,0.41705 0.0678,0.0678 0.0123,0.46044 -0.12409,0.87283 -0.21432,0.6492 -0.20736,0.83291 0.0504,1.37358 0.22827,0.47825 0.27246,0.95266 0.19031,2.03714 -0.0901,1.19062 -0.062,1.41309 0.17665,1.41309 0.15627,0 0.32752,0.16735 0.38101,0.3717 0.13257,0.50695 -0.69881,1.14532 -1.43948,1.10615 -1.09685,-0.0577 -1.21469,-0.0123 -1.21469,0.47517 0,0.50929 -0.90343,1.20035 -1.57862,1.20655 -0.72244,0.009 -0.84183,0.22671 -0.55733,1.02554 0.3372,0.9461 0.34883,2.11192 0.0257,2.48671 -0.13907,0.16123 -0.30387,0.56317 -0.36587,0.89338 -0.14421,0.76469 0.27285,1.01817 1.77084,1.07631 1.17749,0.046 2.00536,0.45578 2.00536,0.99259 0,0.18596 0.12641,0.59184 0.28099,0.90152 0.26549,0.53138 0.32944,0.55733 1.16079,0.47245 0.59108,-0.0611 1.10538,-0.26704 1.56584,-0.62749 0.37712,-0.29532 0.83757,-0.5368 1.02436,-0.5368 0.18596,0 0.65039,-0.16675 1.03136,-0.37092 0.381,-0.20427 0.78099,-0.37169 0.88756,-0.37169 0.10666,0 0.59651,0.37633 1.08796,0.83564 0.76158,0.71237 1.00731,0.83563 1.66349,0.83563 0.643,0 0.77011,-0.0605 0.77011,-0.36626 0,-0.38295 0.8364,-0.93332 1.41818,-0.93332 0.17705,0 0.50384,0.17012 0.72594,0.37946 0.34803,0.3271 0.47127,0.34804 0.89453,0.15588 1.01042,-0.46082 1.92629,0.56082 1.44605,1.61388 l 0,0 c -0.17824,0.39146 -0.15885,0.45038 0.14956,0.45038 0.19523,0 0.40891,-0.16973 0.47479,-0.37635 0.14776,-0.46547 0.92823,-0.99917 1.26933,-0.86741 0.13905,0.0533 0.38445,-0.0573 0.5453,-0.24533 0.16123,-0.18754 0.6651,-0.39729 1.11973,-0.46548 0.66081,-0.0993 0.81043,-0.18835 0.74341,-0.44419 -0.0493,-0.18832 0.162,-0.58214 0.5143,-0.95769 0.54028,-0.57517 0.60345,-0.76315 0.65073,-1.93868 0.0291,-0.71665 0.14185,-1.53677 0.25037,-1.82357 0.10901,-0.28603 0.19808,-0.73486 0.19808,-0.99725 0,-0.59378 0.68213,-1.72783 1.03949,-1.72783 0.14618,0 0.43176,-0.1038 0.63486,-0.23061 0.29378,-0.18339 0.44415,-0.18339 0.73792,0 0.20273,0.12683 0.56281,0.23061 0.79999,0.23061 0.23719,0 0.59338,0.12244 0.79183,0.27285 0.19842,0.14994 0.55153,0.27518 0.78446,0.27869 0.28449,8.4e-4 0.55075,0.21975 0.80772,0.65576 0.26318,0.44573 0.51896,0.64999 0.81468,0.64999 0.62791,0 1.01819,-0.18794 1.01819,-0.49067 0,-0.50001 0.59261,-1.18099 1.02747,-1.18099 0.78215,0 1.01546,0.19506 1.01546,0.84882 0,0.66159 0.37907,1.00848 1.10229,1.00848 0.27868,0 0.38332,-0.11928 0.38332,-0.43564 0,-0.23951 0.15963,-0.57983 0.35503,-0.75655 0.19484,-0.17646 0.40385,-0.51702 0.46393,-0.75655 0.12764,-0.50852 1.00382,-0.78254 1.55652,-0.4868 0.24106,0.12901 0.41471,0.12818 0.54532,-0.004 0.29999,-0.3 1.19994,-0.10861 1.41777,0.30152 0.10817,0.20428 0.3465,0.59804 0.52945,0.8748 0.6205,0.93948 0.39143,2.00416 -0.43062,2.00416 -0.29533,0 -0.53717,0.0836 -0.53717,0.18557 0,0.1019 0.17249,0.18555 0.38334,0.18555 1.25766,0 2.69326,1.67746 2.01577,2.35572 -0.14421,0.14381 -0.13492,0.30658 0.0335,0.57596 0.19464,0.31123 0.18139,0.4558 -0.0776,0.85071 -0.62945,0.96084 -0.23797,1.60344 0.97593,1.60344 0.38294,0 0.56974,-0.0915 0.56974,-0.27943 0,-0.15353 0.16696,-0.59108 0.37132,-0.97206 0.20424,-0.3814 0.3713,-0.90694 0.3713,-1.16741 0,-0.26123 0.16735,-0.80229 0.37169,-1.20305 0.20426,-0.40074 0.37129,-0.97516 0.37129,-1.27668 0,-0.30115 0.19724,-0.8895 0.43834,-1.30694 0.24108,-0.41778 0.49381,-1.12242 0.562,-1.56582 0.068,-0.44339 0.3062,-1.15383 0.52866,-1.5786 0.26007,-0.49612 0.44457,-1.27553 0.51703,-2.18171 0.099,-1.2391 0.21433,-1.58094 0.95926,-2.83283 0.7558,-1.26971 0.8616,-1.58751 0.9802,-2.9491 0.11518,-1.31854 0.2066,-1.60922 0.674,-2.14176 0.40156,-0.45735 0.54109,-0.80423 0.54109,-1.34762 0,-0.62053 0.2585,-1.39956 0.9201,-2.77469 0.1899,-0.39494 1.06274,-0.58449 1.31158,-0.28487 0.16813,0.2027 0.29144,0.19603 0.70384,-0.0388 0.4523,-0.25734 0.60306,-0.25463 1.56817,0.0275 0.76779,0.22481 1.06817,0.40271 1.06817,0.63411 0,0.36857 1.57006,1.24607 2.10882,1.17861 0.18911,-0.0241 0.58949,-0.21782 0.88989,-0.43138 0.37011,-0.26356 0.69336,-0.35115 1.00575,-0.27286 0.4903,0.12283 1.1918,-0.15551 1.43714,-0.57053 0.0814,-0.13826 0.3593,-0.25152 0.61665,-0.25152 0.25775,0 0.60037,-0.13176 0.7616,-0.29302 0.30115,-0.30113 0.36782,-0.29416 1.62824,0.16975 0.83058,0.30577 0.8744,0.36626 1.30574,1.79488 0.33565,1.11078 0.72942,1.67123 1.17399,1.67123 0.15627,0 0.46471,0.16975 0.68565,0.37673 0.23873,0.2244 0.77397,0.4213 1.32241,0.48603 0.69805,0.0825 0.89724,0.0715 1.22089,-0.22713 -0.0139,0.0123 -0.0292,0.0232 -0.0404,0.0388 -0.24261,0.33835 0.86392,1.11855 1.02516,1.54607 0.15768,0.41703 0.14185,0.62749 -0.0821,1.08987 -0.27285,0.56393 -0.27014,0.57751 0.18456,0.87749 0.25386,0.16737 0.63061,0.30464 0.83678,0.30542 0.50811,0 1.92086,1.2015 1.93443,1.64256 0.005,0.19424 -0.0817,0.44533 -0.19524,0.5589 -0.16044,0.16003 -0.16044,0.25192 0,0.41238 0.11351,0.11311 0.20618,0.35967 0.20618,0.54727 0,0.38254 0.63523,1.13715 0.9573,1.13715 0.11518,0 0.25581,-0.12092 0.3128,-0.26897 0.0675,-0.17489 0.26743,-0.25037 0.57092,-0.21512 0.39029,0.0452 0.50346,0.18178 0.68834,0.82825 0.36588,1.2798 0.33796,1.24764 0.82011,0.93138 0.39998,-0.26239 0.46473,-0.26279 0.85965,-8.5e-4 0.23489,0.1539 0.4744,0.4682 0.53216,0.69839 0.11353,0.45233 -0.16975,1.4891 -0.57786,2.11699 -0.22562,0.34727 -0.22406,0.42478 0.0139,0.68755 0.21587,0.23839 0.54029,0.29187 1.65768,0.27288 1.52514,-0.026 1.71428,-0.1175 2.35611,-1.13446 0.29882,-0.47245 0.52713,-0.64689 0.84805,-0.64689 0.74142,0 1.0577,-0.29881 1.37125,-1.29683 0.25114,-0.79881 0.40657,-1.01197 0.93095,-1.2798 0.34613,-0.17626 0.7302,-0.4426 0.85349,-0.59105 0.4984,-0.60076 1.21387,-0.24495 1.21387,0.60308 0,0.23407 0.1208,0.32982 0.41666,0.32982 0.23369,0 0.64259,0.22674 0.93212,0.51588 0.34029,0.34028 0.68836,0.51549 1.02359,0.51549 0.72558,0 0.94106,0.36976 0.97981,1.68208 0.0197,0.63526 0.046,1.24648 0.0598,1.35848 l 0,3.9e-4 c 0.0179,0.14027 0.22598,0.16736 0.67014,0.0862 0.79609,-0.14579 1.73442,-0.13408 3.75684,0.0472 1.12161,0.10064 1.59952,0.0848 1.68633,-0.0558 0.0666,-0.10777 0.2659,-0.19566 0.44223,-0.19566 0.17666,0 0.55503,-0.28331 0.84028,-0.62981 0.29068,-0.35231 0.69259,-0.64261 0.91275,-0.65852 0.32208,-0.024 0.41627,-0.16241 0.51936,-0.76585 0.14065,-0.82517 0.55736,-1.25109 1.10306,-1.12747 0.31238,0.0708 0.50385,-0.17131 1.33094,-1.68211 0.64572,-1.17941 1.13599,-1.86503 1.47783,-2.06696 1.02092,-0.60309 1.62011,-1.24996 2.77781,-2.99676 l 1.17981,-1.78016 -0.25622,-0.61356 c -0.43951,-1.05111 -0.33563,-1.64371 0.44962,-2.57275 0.38834,-0.45966 1.03638,-1.53599 1.44025,-2.39255 0.41121,-0.87165 0.95849,-1.74603 1.24336,-1.98557 l 0.50888,-0.42827 -0.66003,-0.74415 c -0.54572,-0.6147 -0.66008,-0.87051 -0.66008,-1.47553 0,-0.56779 0.0867,-0.78949 0.38682,-0.98987 0.64377,-0.42905 2.30688,-1.92822 5.17188,-4.66065 1.49685,-1.42825 2.81229,-2.65417 2.92235,-2.7243 0.10996,-0.0702 0.74145,-0.33372 1.40344,-0.58567 1.3918,-0.52942 2.14874,-1.01119 2.14874,-1.36658 0,-0.1373 0.17489,-0.32984 0.38877,-0.42712 0.21392,-0.0978 0.51973,-0.40541 0.67981,-0.68408 0.29224,-0.50889 0.68019,-0.74146 1.54799,-0.9271 0.2779,-0.0589 0.64182,-0.35541 0.8953,-0.72828 l 0.42713,-0.62827 -0.50853,-0.57863 c -0.27942,-0.31821 -0.5081,-0.77438 -0.5081,-1.01314 0,-0.62324 0.45502,-2.05108 1.04144,-3.2673 0.27828,-0.57673 0.50579,-1.25538 0.50579,-1.50847 0,-0.69532 -0.58565,-2.21815 -1.19181,-3.09949 l -0.54106,-0.78564 0.67748,-0.90423 c 0.37246,-0.49765 1.12982,-1.33986 1.68286,-1.872 0.9399,-0.90462 1.07322,-0.97478 2.03716,-1.07168 0.98172,-0.0989 1.62316,-0.29842 4.53585,-1.41116 1.13754,-0.4341 1.35924,-0.59882 2.12741,-1.5759 0.8023,-1.02128 1.83054,-1.76429 2.44061,-1.76429 0.37904,0 0.32749,-0.22479 -0.1547,-0.67788 l -0.41937,-0.39417 0.41124,-1.13328 c 0.4279,-1.17939 0.90074,-1.69604 1.63133,-1.78326 0.23912,-0.0286 0.41005,-0.14875 0.38488,-0.27129 -0.10464,-0.51395 0.51431,-1.27788 1.30304,-1.60885 1.35458,-0.56859 1.80379,-0.85114 2.65222,-1.66893 0.51896,-0.49959 0.81661,-0.93405 0.81661,-1.18988 0,-0.51432 2.62432,-3.24443 3.95373,-4.11301 0.52012,-0.3399 1.07901,-0.78096 1.24218,-0.9794 0.34961,-0.42598 0.39611,-1.56352 0.10391,-2.53983 -0.17724,-0.59142 -0.16003,-0.72555 0.1454,-1.13715 0.2,-0.27015 0.62865,-0.54108 1.01741,-0.64339 0.36937,-0.0974 0.96392,-0.28797 1.32166,-0.42365 0.57825,-0.21896 0.63871,-0.29763 0.54918,-0.70692 -0.0817,-0.37171 -0.009,-0.5279 0.38683,-0.8085 0.2682,-0.1911 0.7701,-0.40037 1.11505,-0.4651 0.81122,-0.15233 0.93717,-0.50927 0.3659,-1.03909 -0.53527,-0.49573 -0.60232,-0.50346 -1.29416,-0.1458 -0.46898,0.24264 -3.67659,0.5806 -5.79939,0.61121 -0.78366,0.0123 -1.26194,-0.56665 -1.14334,-1.38211 0.0989,-0.68097 0.86237,-1.91 1.1864,-1.91 0.12285,0 0.35464,-0.27477 0.51468,-0.61044 0.16005,-0.33563 0.50504,-0.73329 0.76663,-0.88289 0.38721,-0.2221 0.4752,-0.3934 0.4752,-0.92322 0,-0.81084 0.46626,-1.36506 1.14761,-1.36506 0.27557,0 0.75426,-0.19348 1.06432,-0.42944 0.30966,-0.23644 0.65266,-0.42983 0.76197,-0.42983 0.26782,0 0.25463,-0.0751 -0.1547,-0.87826 -0.70615,-1.38444 -0.40964,-2.5747 0.70308,-2.81889 0.26704,-0.0585 0.57787,-0.21782 0.6907,-0.35346 0.28874,-0.34727 1.00536,-0.30658 1.80224,0.1038 1.02669,0.52827 1.90648,0.58371 3.0018,0.18873 1.12207,-0.40269 1.29064,-0.61936 1.13407,-1.45418 z"
       id="path3202" />
    <flowRoot
       transform="matrix(1.6733619,0,0,1.6733619,49.92984,117.41444)"
       style="font-size:40px;font-style:normal;font-weight:normal;line-height:125%;letter-spacing:0px;word-spacing:0px;fill:#f7eee5;fill-opacity:1;stroke:none;font-family:Sans"
       id="flowRoot4233"
       xml:space="preserve"><flowRegion
         id="flowRegion4235"><rect
           style="fill:#f7eee5;fill-opacity:1;stroke:none"
           y="296.76807"
           x="120.20815"
           height="138.3909"
           width="422.24377"
           id="rect4237" /></flowRegion><flowPara
         style="font-style:normal;font-variant:normal;font-weight:normal;font-stretch:normal;line-height:128.99999619%;letter-spacing:-2.77052188px;word-spacing:0px;fill:#f7eee5;fill-opacity:1;stroke:none;font-family:Droid Serif;-inkscape-font-specification:Droid Serif"
         id="flowPara4239">OpenData</flowPara></flowRoot>    <path
       clip-path="url(#clipPath3941)"
       transform="matrix(1.1865413,0.19811794,-0.20749547,1.1627352,211.48331,-194.03398)"
       d="m 519.21841,811.94586 c 0,69.17859 -78.69336,125.25892 -175.76654,125.25892 -97.07318,0 -175.76654,-56.08033 -175.76654,-125.25892 0,-69.17859 78.69336,-125.25892 175.76654,-125.25892 97.07318,0 175.76654,56.08033 175.76654,125.25892 z"
       sodipodi:ry="125.25892"
       sodipodi:rx="175.76654"
       sodipodi:cy="811.94586"
       sodipodi:cx="343.45187"
       id="path3874"
       style="opacity:0.06716416;fill:#ffffff;fill-opacity:1;stroke:none"
       sodipodi:type="arc" />
  </g>
  <rect
     style="fill:#800000;fill-opacity:1;stroke:none"
     id="rect3959"
     width="358.69897"
     height="63.63961"
     x="40.938549"
     y="192.69902" />
  <flowRoot
     xml:space="preserve"
     id="flowRoot4233-4"
     style="font-size:40px;font-style:normal;font-weight:normal;line-height:125%;letter-spacing:0px;word-spacing:0px;fill:#f7eee5;fill-opacity:1;stroke:none;font-family:Sans"
     transform="matrix(1.9595805,0,0,1.9595805,-428.81931,-386.0892)"><flowRegion
       id="flowRegion4235-9"><rect
         id="rect4237-3"
         width="422.24377"
         height="138.3909"
         x="120.20815"
         y="296.76807"
         style="fill:#f7eee5;fill-opacity:1;stroke:none" /></flowRegion><flowPara
       id="flowPara4239-0"
       style="font-size:13.10879421px;font-style:normal;font-variant:normal;font-weight:normal;font-stretch:normal;text-align:center;line-height:108.00000429%;text-anchor:middle;fill:#f7eee5;fill-opacity:1;stroke:none;font-family:Droid Serif;-inkscape-font-specification:Droid Serif">Bourgogne</flowPara><flowPara
       style="font-size:13.10879421px;font-style:normal;font-variant:normal;font-weight:normal;font-stretch:normal;text-align:center;line-height:108.00000429%;letter-spacing:0px;text-anchor:middle;fill:#f7eee5;fill-opacity:1;stroke:none;font-family:Droid Serif;-inkscape-font-specification:Droid Serif"
       id="flowPara4333">Franche Comt</flowPara></flowRoot>  <flowRoot
     xml:space="preserve"
     id="flowRoot4233-4-3"
     style="font-size:40px;font-style:normal;font-weight:normal;line-height:125%;letter-spacing:0px;word-spacing:0px;fill:#f7eee5;fill-opacity:1;stroke:none;font-family:Sans"
     transform="matrix(2.2741405,0,0,2.2741405,-532.84507,-405.73471)"><flowRegion
       id="flowRegion4235-9-0"><rect
         id="rect4237-3-7"
         width="422.24377"
         height="138.3909"
         x="120.20815"
         y="296.76807"
         style="fill:#f7eee5;fill-opacity:1;stroke:none" /></flowRegion><flowPara
       style="font-size:8.16501331px;font-style:italic;font-variant:normal;font-weight:normal;font-stretch:normal;text-align:center;line-height:108.00000429%;letter-spacing:0px;text-anchor:middle;fill:#f7eee5;fill-opacity:1;stroke:none;font-family:Droid Serif;-inkscape-font-specification:Droid Serif Italic"
       id="flowPara4333-4">Librons les donnes !</flowPara><flowPara
       style="font-size:8.16501331px;font-style:italic;font-variant:normal;font-weight:normal;font-stretch:normal;text-align:center;line-height:108.00000429%;letter-spacing:0px;text-anchor:middle;fill:#f7eee5;fill-opacity:1;stroke:none;font-family:Droid Serif;-inkscape-font-specification:Droid Serif Italic"
       id="flowPara4165">~</flowPara></flowRoot></svg>
