<?xml version="1.0" encoding="UTF-8" standalone="no"?>
<!-- Created with Inkscape (http://www.inkscape.org/) -->

<svg
   xmlns:dc="http://purl.org/dc/elements/1.1/"
   xmlns:cc="http://creativecommons.org/ns#"
   xmlns:rdf="http://www.w3.org/1999/02/22-rdf-syntax-ns#"
   xmlns:svg="http://www.w3.org/2000/svg"
   xmlns="http://www.w3.org/2000/svg"
   xmlns:sodipodi="http://sodipodi.sourceforge.net/DTD/sodipodi-0.dtd"
   xmlns:inkscape="http://www.inkscape.org/namespaces/inkscape"
   width="513.06543"
   height="386.84552"
   id="svg2"
   version="1.1"
   inkscape:version="0.48.4 r9939"
   sodipodi:docname="logo3.svg"
   inkscape:export-filename="/home/william/Bureau/OpenDataBFC/logo3.png"
   inkscape:export-xdpi="90"
   inkscape:export-ydpi="90">
  <defs
     id="defs4" />
  <sodipodi:namedview
     id="base"
     pagecolor="#ffffff"
     bordercolor="#666666"
     borderopacity="1.0"
     inkscape:pageopacity="0.0"
     inkscape:pageshadow="2"
     inkscape:zoom="0.7"
     inkscape:cx="169.54632"
     inkscape:cy="-51.624053"
     inkscape:document-units="px"
     inkscape:current-layer="svg2"
     showgrid="false"
     inkscape:window-width="1680"
     inkscape:window-height="1025"
     inkscape:window-x="1920"
     inkscape:window-y="30"
     inkscape:window-maximized="1"
     showguides="true"
     inkscape:guide-bbox="true"
     fit-margin-top="0"
     fit-margin-left="0"
     fit-margin-right="0"
     fit-margin-bottom="0" />
  <metadata
     id="metadata7">
    <rdf:RDF>
      <cc:Work
         rdf:about="">
        <dc:format>image/svg+xml</dc:format>
        <dc:type
           rdf:resource="http://purl.org/dc/dcmitype/StillImage" />
        <dc:title></dc:title>
      </cc:Work>
    </rdf:RDF>
  </metadata>
  <path
     id="path3202"
     d="m 512.93778,150.41985 c -0.22785,-1.21324 -0.64175,-1.74107 -1.95182,-2.48913 -1.39172,-0.79458 -1.66513,-1.16862 -1.66513,-2.30116 0,-0.74997 -0.34555,-1.68791 -0.77178,-2.10561 -0.42246,-0.41487 -1.02339,-1.41639 -1.33381,-2.22711 -0.84585,-2.20813 -1.21989,-2.52616 -2.96855,-2.52616 -1.09363,0 -1.99737,0.33416 -2.85461,1.0547 -0.7158,0.60282 -1.53317,0.94838 -1.90341,0.80597 -1.05089,-0.40345 -2.22522,-3.17264 -2.30592,-5.43963 -0.0949,-2.64766 1.2218,-6.59497 2.38187,-7.14082 0.47277,-0.22215 0.98919,-0.79079 1.14868,-1.26261 0.506,-1.50373 0.25632,-4.54918 -0.487,-5.92854 -0.58953,-1.09457 -0.63319,-1.57683 -0.24397,-2.69324 0.42434,-1.21893 0.35694,-1.50564 -0.65314,-2.77203 -0.69205,-0.86768 -1.99358,-1.74487 -3.37201,-2.27268 -1.23507,-0.47182 -3.11853,-1.52556 -4.18651,-2.34199 -1.06801,-0.81453 -2.27839,-1.48284 -2.68945,-1.48284 -0.412,0 -1.28443,-0.26676 -1.93947,-0.59333 -0.65504,-0.32562 -2.42459,-0.94838 -3.92927,-1.38317 l -2.7369,-0.78984 -1.52177,-2.88026 c -0.8373,-1.58443 -1.64897,-2.67425 -1.80467,-2.42267 -0.40821,0.65977 -2.173,-0.0988 -4.31848,-1.856884 -1.29678,-1.0623 -1.81225,-1.81796 -1.90814,-2.79387 -0.1177,-1.19994 -0.38542,-1.44107 -2.57553,-2.31824 -2.52615,-1.01199 -4.75232,-2.3287 -7.66104,-4.52924 -0.92655,-0.7006 -2.79103,-1.84265 -4.14475,-2.53755 -2.31352,-1.1876 -3.64447,-2.69038 -3.64447,-4.11438 0,-0.31707 -0.84775,-1.3376 -1.88252,-2.26794 l -1.88251,-1.69169 -1.5531,0.87907 c -1.04331,0.58955 -2.00973,1.70594 -2.94101,3.39099 -1.33284,2.41509 -1.48474,2.54039 -3.9359,3.23055 -1.40216,0.39587 -3.20777,1.12686 -4.0128,1.62336 -0.81072,0.5003 -1.79613,0.79553 -2.20719,0.65978 -0.96452,-0.31897 -3.60364,-4.35932 -3.32358,-5.08744 0.11771,-0.30854 -0.0721,-0.79934 -0.42246,-1.08983 -0.35029,-0.29049 -1.00627,-1.25215 -1.4572,-2.13598 -0.64554,-1.26545 -1.06421,-1.60817 -1.96891,-1.6129 -1.32526,-0.007 -1.80751,-0.29619 -2.4578,-1.46766 -0.76515,-1.37937 -3.27708,-1.53221 -6.32631,-0.38448 -2.37141,0.89237 -2.83563,0.93888 -4.94883,0.49555 -2.30402,-0.48321 -2.35053,-0.47371 -4.0071,0.85724 -0.9218,0.74047 -1.86067,1.3471 -2.08662,1.3471 -0.22499,0 -0.48226,0.21359 -0.56866,0.47371 -0.0864,0.26012 -0.71863,0.47181 -1.40405,0.46896 -0.68541,-0.002 -1.59011,0.17657 -2.01066,0.39778 -1.199,0.63224 -2.96,-0.69681 -2.63628,-1.9898 0.29239,-1.16291 -0.67973,-1.87776 -2.55083,-1.87776 -2.3306,0 -5.152,-4.07736 -3.31031,-4.78365 0.81832,-0.31424 0.80693,-1.51798 -0.0257,-2.70653 -0.36264,-0.51739 -0.55061,-1.28253 -0.41675,-1.70119 0.15379,-0.48605 -0.13195,-1.11071 -0.7908,-1.72966 l -1.03191,-0.96928 -1.15913,0.91136 c -0.91515,0.72054 -1.65182,0.89332 -3.51061,0.82591 -3.65489,-0.13195 -7.1693,2.323 -7.1693,5.00769 0,0.45663 -0.28481,1.0661 -0.63226,1.35469 -0.34649,0.2886 -0.63129,0.7851 -0.63129,1.10406 0,1.16672 -1.63378,2.2651 -3.36821,2.2651 -0.92654,0 -1.68411,0.18228 -1.68411,0.40631 0,0.22405 -0.56199,0.9816 -1.24836,1.6841 -0.98064,1.00344 -1.61195,1.27779 -2.9391,1.27779 -1.4316,0 -1.72967,-0.15379 -1.94328,-1.00723 -0.2136,-0.8468 -0.42718,-0.96072 -1.3433,-0.71579 -0.73572,0.19652 -1.11355,0.60567 -1.16196,1.25595 -0.039,0.53068 -0.31898,1.11832 -0.62087,1.30439 -0.36739,0.22688 -0.46041,0.78413 -0.28195,1.67556 0.32277,1.6129 -0.67783,3.80299 -1.73726,3.80299 -0.40157,0 -1.31197,-0.16804 -2.02492,-0.37213 -1.0604,-0.30379 -1.38412,-0.22879 -1.78662,0.4158 -0.26962,0.43288 -0.49175,0.99679 -0.49175,1.2531 0,0.25633 -0.39208,1.01769 -0.87054,1.68981 -0.62656,0.88097 -0.83351,1.72017 -0.73668,2.99892 0.12531,1.66321 0.039,1.8246 -1.33948,2.50718 -1.94423,0.96261 -3.07583,0.94836 -3.97864,-0.0484 -0.93983,-1.0395 -2.77772,-1.26543 -3.60553,-0.44522 -0.39302,0.38922 -0.57719,1.15627 -0.48037,1.99833 0.37878,3.30935 -0.54585,4.105824 -4.76845,4.105824 h -2.51667 l -0.49176,2.71224 c -0.56295,3.11189 -0.4158,3.81439 0.80125,3.81439 1.61384,0 2.40937,1.19994 2.40937,3.63401 0,1.93757 -0.14523,2.3363 -1.07368,2.94482 -0.59048,0.38732 -0.98444,0.93602 -0.87622,1.22082 0.10918,0.28385 -0.0682,1.03191 -0.39493,1.66132 -0.51642,0.99395 -0.51168,1.26356 0.0333,2.04105 0.72054,1.02908 0.81833,2.93247 0.2098,4.0707 -0.44333,0.82687 -3.0986,1.90911 -3.72895,1.51988 -0.20505,-0.12721 -0.7177,0.14905 -1.13729,0.61327 -0.50694,0.56105 -1.2702,0.83541 -2.26698,0.81451 -0.82592,-0.0161 -2.41699,0.059 -3.53435,0.16708 -2.46255,0.23734 -3.25429,-0.39112 -4.0992,-3.25427 -0.31802,-1.07844 -0.67971,-1.95277 -0.80312,-1.94327 -0.12341,0.009 -1.07653,1.13823 -2.11794,2.50906 -1.78852,2.35242 -1.99738,2.49293 -3.70523,2.51002 -0.99583,0.009 -2.3866,-0.281 -3.09099,-0.64554 -1.15249,-0.59618 -1.35185,-0.59808 -1.99644,-0.0142 -1.17241,1.0604 -4.9251,1.69455 -6.4051,1.08128 -0.68825,-0.2848 -1.35373,-0.41486 -1.47999,-0.28859 -0.12721,0.12621 -0.26297,1.16672 -0.30474,2.3135 -0.0636,1.76669 -0.31802,2.35244 -1.6765,3.85521 -1.32811,1.47147 -1.57778,2.02776 -1.4705,3.28942 0.0322,0.38827 -0.88289,2.01732 -1.39172,3.07297 -0.34746,-0.19652 -0.61422,-0.0114 -1.30628,0.63795 -0.88952,0.83445 -1.21038,0.9009 -2.19294,0.45472 -0.6332,-0.28955 -1.34803,-1.04426 -1.58917,-1.67841 -0.37119,-0.97306 -0.63509,-1.10691 -1.69739,-0.85535 -1.52367,0.36076 -3.25714,1.8493 -3.80584,3.27043 -0.45569,1.18192 -3.16791,2.50149 -4.27007,2.07807 -1.20375,-0.46231 -2.62299,-3.7337 -2.32014,-5.34659 0.3987,-2.12269 -2.29834,-5.30199 -5.81653,-6.85603 l -2.67141,-1.18001 0.29525,-1.92144 0.29619,-1.92143 -0.86675,1.36513 c -1.90244,2.99607 -2.74828,3.541 -5.00484,3.23245 -1.14109,-0.15664 -2.27743,-0.48794 -2.52615,-0.73479 -0.24777,-0.24872 -0.76801,-0.45471 -1.15533,-0.46041 -0.38732,-0.005 -1.21703,-0.41106 -1.84264,-0.89995 -0.62466,-0.4889 -1.46292,-0.89332 -1.86259,-0.89902 -1.30152,-0.019 -2.3771,-1.66796 -2.07521,-3.18309 0.23354,-1.16672 0.1367,-1.37652 -0.63795,-1.37652 -0.52214,0 -1.06988,-0.4234 -1.27874,-0.9892 -0.3598,-0.97211 -0.38732,-0.96546 -1.60247,0.39872 -0.86103,0.96736 -1.79232,1.46196 -3.07106,1.63379 -1.63189,0.21834 -1.9803,0.0864 -3.14796,-1.19521 -1.71732,-1.88156 -2.00782,-2.85651 -1.21989,-4.07829 0.90566,-1.405 1.24552,-2.99608 0.71199,-3.32643 -0.24872,-0.15381 -0.3389,-0.71105 -0.20127,-1.23793 0.13767,-0.52784 0.13102,-1.43728 -0.0161,-2.02112 -0.23353,-0.92749 -0.5022,-1.04425 -2.12838,-0.92369 -1.62715,0.12049 -1.93663,-0.0133 -2.44641,-1.05946 -0.80884,-1.65941 -0.29715,-3.89318 0.96355,-4.2093 1.45058,-0.36454 6.62346,-3.80015 6.93199,-4.60517 0.16613,-0.43101 -0.43289,-1.364194 -1.60531,-2.502434 -1.34899,-1.30911 -1.87018,-2.18535 -1.87018,-3.14322 0,-1.86636 -0.4272,-2.76728 -1.31292,-2.76728 -1.50372,0 -2.78247,-1.34425 -2.78247,-2.92677 0,-0.83161 -0.27341,-1.73821 -0.60851,-2.01637 -0.33513,-0.27815 -0.8525,-1.31766 -1.15059,-2.31162 -0.29619,-0.99298 -0.72149,-1.91763 -0.94173,-2.05337 -0.77844,-0.48227 -1.89675,0.3408 -2.75779,2.02965 -1.1316,2.21952 -2.01732,2.51571 -3.79445,1.26925 -2.92014,-2.04961 -3.28182,-3.43277 -1.26925,-4.86624 0.7177,-0.51074 1.65278,-1.46006 2.07807,-2.11036 0.71011,-1.08319 0.7139,-1.27209 0.0541,-2.27932 -0.63794,-0.97307 -1.02622,-1.08983 -3.40048,-1.02528 -4.38115,0.12049 -5.96176,-1.53316 -4.38209,-4.58809 0.36169,-0.69965 0.53542,-1.73726 0.38733,-2.30497 -0.24304,-0.93223 -0.46233,-1.00627 -2.2613,-0.75946 -2.72456,0.37405 -6.19055,-0.44237 -7.41423,-1.7458 -0.93604,-0.99678 -1.10976,-1.02717 -2.49103,-0.45093 -1.32527,0.55345 -1.66227,0.52498 -3.14133,-0.26771 -0.91133,-0.4889 -2.46539,-0.88858 -3.45174,-0.88858 -0.98731,0 -1.92048,-0.20505 -2.07618,-0.45471 -0.15569,-0.24968 -0.91516,-0.45473 -1.68885,-0.45473 -1.06323,0 -1.98978,0.54965 -3.78401,2.24704 l -2.37616,2.248 1.05755,0.99396 c 0.58098,0.54587 1.19235,1.60437 1.35659,2.35147 0.47561,2.16732 -0.51834,2.76634 -4.86244,2.93153 -2.20909,0.0844 -4.97543,0.54396 -6.78864,1.1278 l -3.05968,0.98539 -1.65657,-0.97684 c -1.40404,-0.82876 -1.95085,-0.91328 -3.57516,-0.55443 -1.05374,0.23259 -2.97519,0.65314 -4.26627,0.9351 -1.66037,0.36263 -2.85082,0.37498 -4.05552,0.0418 -1.41924,-0.39207 -1.79801,-0.34556 -2.25084,0.27341 -0.29904,0.40916 -0.45283,1.09456 -0.33986,1.52272 0.37593,1.43728 -1.12306,3.54003 -2.86601,4.02038 -0.89427,0.24683 -1.96891,0.33891 -2.38851,0.20601 -2.59736,-0.82686 -3.48782,-1.41355 -4.85105,-3.20018 -1.36513,-1.78759 -1.55595,-1.89959 -1.81891,-1.06989 -0.59807,1.88347 -3.90173,1.68411 -4.25773,-0.25726 -0.26866,-1.46955 -0.89521,-1.76005 -1.87871,-0.87053 -0.50598,0.45757 -0.92085,1.10785 -0.92085,1.44391 0,0.91705 -4.12197,3.32359 -5.70925,3.33309 -1.54263,0.0103 -2.47963,-0.68921 -2.47963,-1.84834 0,-0.42055 -0.42436,-0.87717 -0.94458,-1.01294 -0.73952,-0.1927 -1.04616,0.0427 -1.4088,1.08509 -0.53257,1.52651 -0.32941,1.43539 -3.43656,1.55784 -1.8094,0.0713 -2.55843,-0.10436 -3.13181,-0.73763 -0.71391,-0.78888 -0.82118,-0.79174 -2.05815,-0.0607 -1.00439,0.59334 -1.59486,0.66739 -2.55464,0.32468 -0.74711,-0.26773 -2.25275,-0.29809 -3.75079,-0.0778 -1.37556,0.2041 -3.32074,0.41201 -4.32226,0.46138 -1.75626,0.0892 -1.81702,0.0446 -1.73347,-1.27305 0.1291,-2.06003 0.92654,-6.47914 1.26829,-7.03356 0.16708,-0.2696 0.0484,-1.25309 -0.26297,-2.18724 l -0.56675,-1.69645 -0.39301,1.49614 c -0.88952,3.37674 -5.06845,2.64197 -6.51523,-1.14489 -0.82685,-2.16541 -0.41864,-3.30839 1.18193,-3.30839 0.45472,0 0.93412,-0.17374 1.06513,-0.38542 0.26486,-0.42816 -1.56259,-2.21859 -3.48308,-3.40904 -1.08792,-0.67498 -1.25025,-1.06419 -1.25025,-3.00462 0,-1.86447 -0.27151,-2.58596 -1.65752,-4.40202 -1.48096,-1.93853 -1.60628,-2.30971 -1.17243,-3.45839 0.43953,-1.16483 0.33702,-1.43159 -1.07179,-2.79956 -0.85535,-0.83161 -1.55689,-1.72967 -1.55689,-1.99549 0,-0.33415 -0.42245,-0.32371 -1.36513,0.0323 -1.18665,0.44808 -1.49234,0.38827 -2.33155,-0.45093 -1.16482,-1.16482 -1.24931,-3.04544 -0.18986,-4.215 0.61612,-0.68257 0.67117,-1.04996 0.26771,-1.80467 -0.56485,-1.05376 -1.49709,-1.31388 -1.11166,-0.30853 0.34272,0.89426 -2.13218,3.53053 -3.47927,3.70521 -0.61326,0.0808 -1.764805,0.40252 -2.557495,0.71675 -1.77524,0.70155 -2.66951,0.12532 -3.13468,-2.02207 -0.17277,-0.79553 -0.65596,-1.95846 -1.07556,-2.58406 -0.41866,-0.6256 -1.00344,-1.70025 -1.29774,-2.38946 -0.63795,-1.48474 -1.23127,-1.5512 -3.05873,-0.3408 -0.75091,0.49745 -1.65847,0.90565 -2.01826,0.90755 -0.87433,0.004 -2.75779,-1.80466 -2.75779,-2.64861 0,-0.37024 1.02337,-1.7553 2.2746,-3.07771 2.51285,-2.65717 2.70556,-3.14988 1.36512,-3.50113 -1.31482,-0.34365 -1.13162,-2.07332 0.4158,-3.9397 1.63093,-1.96605 1.24552,-3.10618 -1.47336,-4.37068 -1.69169,-0.78606 -1.89201,-1.04617 -1.83315,-2.36287 0.0532,-1.15629 -0.22118,-1.68601 -1.25025,-2.41985 -0.72528,-0.51643 -1.31862,-1.21703 -1.31862,-1.55879 0,-0.34175 -0.46042,-0.68541 -1.02337,-0.76516 -0.75472,-0.10729 -1.06418,-0.50028 -1.17717,-1.49423 -0.19935,-1.7553 -4.35645,-6.61205 -5.65893,-6.61205 -0.52117,0 -1.60721,-0.23923 -2.41508,-0.53163 -1.32906,-0.4813 -1.60437,-0.41581 -2.90968,0.68257 -1.54835,1.30248 -1.77809,1.38032 -2.56602,0.86483 -0.7946,-0.51927 -2.44358,-3.42705 -2.44358,-4.31468 -9.4e-4,-0.43763 -0.28384,-0.79649 -0.62844,-0.79649 -0.34461,0 -0.88382,-0.30945996 -1.19804,-0.68825996 -0.79745,-0.96071 -1.81418,-0.0427 -1.81418,1.63853996 0,0.77086 -0.32276,1.46007 -0.79649,1.70688 -1.14678,0.59524 -8.15851,0.67402 -8.51639,0.0959 -0.52972,-0.8563 -2.21099,-0.50315 -3.50396,0.73478 -1.17527,1.12684 -1.38888,1.17526 -3.01032,0.69015 -1.30531,-0.39111 -2.0885,-0.39302 -3.11379,-0.005 -1.50467,0.56769 -3.46124,0.25347 -4.3498,-0.69871 -0.47751,-0.51073 -0.82211,-0.50505 -2.1075,0.0314 -0.85819,0.35788 -2.09516,0.51926 -2.80147,0.36452 -1.08697,-0.23922 -1.40215,-0.058 -2.2328,1.28634 -1.17908,1.90814 -2.40844,2.3173 -3.41854,1.13825 -0.59332,-0.69206 -1.09361,-0.81073 -2.4407,-0.57434 -2.01828,0.35314 -2.90874,1.31861 -2.548,2.76062 0.18606,0.74334 -0.14619,1.61197 -1.13159,2.95146 -0.768,1.04426 -1.31102,2.03537 -1.20754,2.20244 0.19461,0.31518 0.68827,2.4654 0.83445,3.63972 0.0466,0.36833 0.53257,1.08507 1.08129,1.59201 0.67687,0.62751 1.04141,1.57589 1.13633,2.96 0.12532,1.80847 0.009,2.09991 -1.03855,2.6059 -0.7889,0.38069 -1.66703,1.62714 -2.65337,3.76787 -1.48475,3.22201 -2.57932,4.31659 -3.83432,3.83434 -0.41866,-0.16045 -0.97212,0.18226 -1.43824,0.89331 -0.41581,0.63605 -1.19995,1.29014 -1.7401,1.45436 -1.98694,0.60472 -3.5504798,2.92107 -1.97176,2.92107 0.33228,0 1.09458,0.52308 1.69551,1.16292 0.67401,0.7177 1.41449,1.0794 1.93283,0.94364 0.46232,-0.12063 1.19424,0.12341 1.62618,0.54207 0.43194,0.41961 1.28444,0.8202 1.8939,0.89046 1.44012,0.16613 3.22012,2.30497 3.00653,3.61503 -0.0949,0.58004 0.19555,1.3376 0.68066,1.7762 0.46421,0.4196 0.84489,1.20563 0.84489,1.74389 0,0.53829 0.29999,1.37748 0.66738,1.86355 0.3674,0.48605 0.67308,1.53315 0.68256,2.32868 0.0152,1.50373 0.99775,2.87551 2.05909,2.87551 0.98826,0 3.44416,2.30211 3.30935,3.10335 -0.0769,0.46042 0.50884,1.03475 1.58348,1.54739 2.01542,0.96452 2.40654,2.79862 0.71104,3.33784 -0.95217,0.30187 -0.95882,0.34176 -0.15758,0.92844 0.46041,0.33701 0.993,1.48854 1.18285,2.55843 0.18988,1.06989 0.49365,2.72362 0.67497,3.67389 0.28291,1.47809 0.16424,1.90719 -0.81831,2.95716 -0.63225,0.67496 -1.28444,1.67365 -1.44773,2.21856 -0.16328,0.54491 -1.00627,1.40786 -1.87111,1.91859 -0.86484,0.51075 -1.57208,1.12874 -1.57208,1.37651 0,0.24684 -0.70156,0.7813 -1.5607,1.18857 -0.93699,0.44524 -1.73915,1.25216 -2.00592,2.02016 -0.31898,0.91516 -0.94365,1.44204 -2.19294,1.84739 -2.10657,0.68446 -2.60591,1.43253 -2.63438,3.94256 -0.018,1.5398 0.17277,2.00022 0.97875,2.3676 1.26735,0.57814 2.21192,3.71758 1.51322,5.02479 -0.26296,0.4908 -0.79934,1.07273 -1.19235,1.29204 -0.64459,0.36264 -0.64459,0.55724 0.0103,2.12174 0.82495,1.976494 0.93222,4.455194 0.24871,5.734874 -0.34839,0.65218 -0.95786,0.88097 -2.34484,0.88097 -1.89484,0 -6.7383,1.94611 -6.7383,2.70749 0,0.73002 -3.0596798,1.48474 -3.9909598,0.98634 -0.57625,-0.30759 -1.81891,-0.29049 -3.83623,0.0559 -2.56223002,0.43954 -2.98087002,0.6446 -2.95811002,1.45151 0.0142,0.5174 -0.14335,1.96227 -0.34933,3.21348 -0.34557,2.09896 -0.31614,2.22523 0.38921,1.63949 1.08129002,-0.89712 3.01412002,0.0152 3.01412002,1.42303 9.3e-4,0.71485 0.77749,1.63285 2.52045,2.97898 2.39136,1.84646 2.50337,2.02493 2.22332,3.5182 -0.26012,1.38888 -0.16137,1.62336 0.84586,2.00593 1.3034098,0.49556 2.5973298,2.13978 2.5973298,3.30175 0,0.43289 -0.51832,1.30629 -1.15246,1.93949 -1.0974198,1.09837 -1.1192598,1.21512 -0.45473,2.50051 0.38353,0.74142 0.69679,1.86068 0.69679,2.48723 0,0.62657 0.46044,1.64805 1.02339,2.26984 3.34636,3.69573 3.34447,3.68813 1.29963,6.07569 -0.99015,1.15627 -1.7088,1.24457 -4.1571098,0.51074 -1.42398,-0.42626 -1.89106,-0.38827 -2.77013,0.22688 -0.58099,0.40727 -1.36989,0.74237 -1.75246,0.74333 -0.38161,0.002 -1.28158,0.30853 -1.99737,0.68256 -0.7158,0.37403 -1.60152002,0.67972 -1.96416002,0.67972 -0.39491,0 0.24303,1.0528 1.58442002,2.61539 1.23508,1.43918 2.38946,3.22961 2.56509,3.98053 0.17562,0.75091 1.23697,3.24194 2.35716,5.53647 2.38946,4.89092 2.86793,6.96804 1.80847,7.84712 -0.39967,0.33226 -0.72719,1.10784 -0.72719,1.72395 0,1.39077 -2.77297,7.79777 -4.64314,10.72833 -1.90531,2.98659 -1.48285,4.66405 1.54076,6.11272 1.16672,0.55916 2.8869,1.95371 3.83147,3.10619 0.94269,1.15153 2.5945098,2.69799 3.6700998,3.43847 2.58881,1.78093 3.01791,2.71696 2.92393,6.39085 -0.0541,2.13029 0.15948,3.54858 0.68636,4.56626 1.32146,2.55463 3.81723,10.47866 3.83241,12.16465 0.0103,0.88952 0.31518,2.01352 0.68258,2.49958 0.86957,1.14963 0.88381,7.1019 0.0227,9.5749 l -0.63128,1.81415 2.55082,1.69359 c 3.89698,2.58883 5.021,5.52888 3.50206,9.1648 -0.93983,2.248 -0.85533,4.01185 0.30568,6.4013 l 0.98826,2.03536 -1.40026,3.09575 c -1.95655,4.32322 -2.0439,4.78459 -1.27113,6.63579 0.37593,0.9009 0.81545,3.34352 0.97588,5.42732 0.24493,3.18403 0.17374,3.88558 -0.45092,4.40297 -0.44428,0.36929 -0.74047,1.29962 -0.74047,2.32395 0,0.99584 -0.29714,1.95466 -0.71295,2.29927 -2.01067,1.66891 -2.58121,5.24502 -1.27589,7.99617 1.09741,2.31445 4.3014,4.81687 7.44935,5.81937 2.5499,0.81261 2.91823,1.11165 5.12543,4.16468 2.11414,2.92298 4.34505,4.74093 5.81841,4.74093 0.24872,0 1.11164,-0.60756 1.91763,-1.34993 3.12898,-2.88217 6.46206,-5.05611 7.38005,-4.81499 0.50029,0.13197 1.34899,0.24114 1.88441,0.24493 0.70345,0 1.27495,0.60186 2.04769,2.14168 1.30154,2.59166 2.04771,3.08816 4.06788,2.69987 1.2702,-0.24397 1.78284,-0.71483 2.81854,-2.59164 l 1.26545,-2.29453 3.28372,0.30284 c 3.27898,0.30188 4.60329,1.01767 4.13621,2.23471 -0.1224,0.31802 0.38352,1.18381 1.12496,1.92427 1.27114,1.27117 1.32431,1.46768 0.93888,3.52201 -0.74427,3.98621 0.33797,3.99571 4.16185,0.0361 3.14796,-3.26092 4.01279,-3.72324 5.48235,-2.93625 0.89046,0.47561 0.95691,0.44239 0.62275,-0.31613 -0.206,-0.46706 -0.46517,-1.75624 -0.57623,-2.86506 -0.22594,-2.2575 0.74426,-3.52769 2.13029,-2.78628 0.4063,0.2174 1.29202,0.28955 1.96794,0.16044 l 1.23034,-0.23542 -0.89332,-1.75152 c -1.15438,-2.26319 -1.1221,-2.62108 0.40535,-4.46182 1.12306,-1.35375 1.39266,-1.47336 2.26225,-1.00819 0.54397,0.29144 0.98825,0.81642 0.98825,1.16767 0,0.41011 0.61231,0.69016 1.70593,0.77941 1.61291,0.13384 1.7088,0.22877 1.75436,1.75435 0.0257,0.88666 0.28194,2.04958 0.56865,2.58595 0.28669,0.53448 0.52116,1.49138 0.52116,2.12459 0,0.68542 0.36836,1.34805 0.91041,1.63855 0.49933,0.2677 0.90946,0.89804 0.90946,1.4031 0,0.50313 0.51168,1.38981 1.13729,1.96888 0.62465,0.5791 1.13633,1.37463 1.13633,1.76671 0,0.39206 0.59144,1.13349 1.31482,1.64898 0.777505,0.55346 2.091375,2.50527 3.217275,4.77605 1.57968,3.18688 1.817,4.00045 1.3993,4.78175 -0.39777,0.74428 -0.36929,0.93984 0.13956,0.93984 1.09362,0 1.60342,1.0585 2.17395,4.5055 0.4367,2.64862 0.43098,3.6473 -0.0304,4.92416 -0.67497,1.86637 -0.0969,2.58594 1.73441,2.15401 0.66264,-0.15663 1.39267,0.0313 1.8977,0.4889 0.45094,0.40821 1.50184,1.10975 2.3344,1.55879 1.47619,0.79553 1.55688,0.79173 3.18404,-0.14049 1.63758,-0.93793 1.68789,-0.9408 2.6154,-0.10069 0.52116,0.4699 0.94647,1.11735 0.94647,1.43727 0,0.31993 0.40914,0.71105 0.9085,0.86958 0.99775,0.31613 1.60245,2.00213 1.23033,3.42611 -0.17089,0.65314 0.093,1.08223 0.93319,1.52272 1.06703,0.55916 1.25596,0.5155 2.11984,-0.48415 1.01956,-1.18 1.47525,-1.24836 5.1947,-0.78034 1.94992,0.24493 2.52237,0.51643 2.91539,1.38032 0.26961,0.59238 0.82591,1.07653 1.23507,1.07653 0.4101,0 1.52841,0.80312 2.48723,1.78473 1.54931,1.58633 1.73916,2.02871 1.71069,3.97957 -0.0398,2.77299 -0.48227,4.72385 -1.2816,5.6447 -0.3427,0.39587 -0.48889,0.85439 -0.32277,1.02147 0.16614,0.16613 0.0294,1.1278 -0.30378,2.13789 -0.52498,1.59011 -0.50789,2.0401 0.12343,3.3644 0.55914,1.17147 0.66736,2.33344 0.4661,4.98965 -0.22025,2.91633 -0.15188,3.46125 0.43289,3.46125 0.38258,0 0.80219,0.41011 0.93319,0.9104 0.32467,1.24173 -1.71163,2.80525 -3.52579,2.70938 -2.68659,-0.14146 -2.97519,-0.0284 -2.97519,1.16387 0,1.24741 -2.21287,2.94006 -3.86661,2.95525 -1.76954,0.0171 -2.06193,0.55535 -1.36512,2.51192 0.82591,2.3173 0.85439,5.17287 0.0627,6.09087 -0.34082,0.39492 -0.74427,1.37937 -0.89617,2.18821 -0.35314,1.87301 0.66833,2.49386 4.33747,2.63627 2.88404,0.113 4.91181,1.1164 4.91181,2.43121 0,0.45568 0.30948,1.44962 0.68827,2.20815 0.65027,1.30152 0.80692,1.36511 2.84322,1.15722 1.44772,-0.14999 2.70747,-0.6541 3.83528,-1.53696 0.9237,-0.72339 2.05149,-1.31481 2.50907,-1.31481 0.45567,0 1.59296,-0.40822 2.52615,-0.90852 0.93318,-0.50029 1.9129,-0.91039 2.17395,-0.91039 0.26107,0 1.46102,0.92179 2.66477,2.04674 1.86542,1.74485 2.46729,2.04674 4.07449,2.04674 1.57493,0 1.88631,-0.14809 1.88631,-0.89711 0,-0.93794 2.04865,-2.28598 3.47359,-2.28598 0.43385,0 1.23411,0.41675 1.77809,0.9294 0.85249,0.80123 1.15438,0.8525 2.19105,0.38162 2.4749,-1.12874 4.71815,1.37367 3.54192,3.95299 l 0,0 c -0.43669,0.95882 -0.38923,1.10313 0.36644,1.10313 0.47846,0 1.00154,-0.41581 1.16292,-0.9218 0.36171,-1.14015 2.27364,-2.44737 3.10904,-2.1246 0.34082,0.13006 0.94174,-0.14049 1.33571,-0.60091 0.39492,-0.45948 1.62906,-0.97308 2.74261,-1.14015 1.6186,-0.24302 1.98503,-0.46137 1.82079,-1.08793 -0.12061,-0.46136 0.39683,-1.42589 1.25977,-2.34579 1.32335,-1.40879 1.47809,-1.86921 1.59391,-4.7485 0.0713,-1.75531 0.34746,-3.7641 0.61326,-4.4666 0.26676,-0.70059 0.48511,-1.79992 0.48511,-2.4426 0,-1.45438 1.67081,-4.2321 2.5461,-4.2321 0.35788,0 1.05754,-0.25443 1.55499,-0.56485 0.71959,-0.44902 1.08792,-0.44902 1.80751,0 0.4965,0.31042 1.37843,0.56485 1.95942,0.56485 0.58098,0 1.45341,0.29999 1.93946,0.66831 0.48605,0.3674 1.35089,0.67403 1.92143,0.68258 0.69682,0.009 1.349,0.53827 1.9784,1.60625 0.6446,1.09174 1.27115,1.59202 1.99548,1.59202 1.53792,0 2.49388,-0.46041 2.49388,-1.20184 0,-1.22462 1.45153,-2.89259 2.51667,-2.89259 1.91573,0 2.48723,0.47751 2.48723,2.07902 0,1.62049 0.92843,2.47015 2.69988,2.47015 0.68257,0 0.93888,-0.2924 0.93888,-1.06705 0,-0.58668 0.39112,-1.42019 0.86959,-1.85308 0.47752,-0.43195 0.98921,-1.2664 1.13634,-1.85309 0.31234,-1.2455 2.45875,-1.91669 3.81249,-1.19235 0.59048,0.31613 1.01577,0.31423 1.33571,-0.009 0.73477,-0.73478 2.93909,-0.26582 3.47263,0.73857 0.26486,0.50031 0.8487,1.46481 1.29677,2.14263 1.51987,2.30117 0.95883,4.90897 -1.0547,4.90897 -0.72338,0 -1.31576,0.20506 -1.31576,0.45472 0,0.24967 0.42244,0.45473 0.93889,0.45473 3.08056,0 6.59686,4.10868 4.93744,5.77 -0.35315,0.35221 -0.33037,0.75092 0.0816,1.4107 0.47656,0.76231 0.44429,1.11641 -0.18987,2.08376 -1.54171,2.3534 -0.58289,3.92737 2.3904,3.92737 0.93793,0 1.39551,-0.22404 1.39551,-0.68446 0,-0.37593 0.40916,-1.44772 0.90945,-2.38092 0.5003,-0.93414 0.90946,-2.22142 0.90946,-2.85937 0,-0.63983 0.41011,-1.96509 0.9104,-2.9467 0.5003,-0.9816 0.90946,-2.3885 0.90946,-3.12708 0,-0.73763 0.4832,-2.1787 1.07367,-3.20112 0.5905,-1.02338 1.20946,-2.74924 1.37653,-3.83528 0.16708,-1.08604 0.74997,-2.82613 1.29489,-3.8666 0.637,-1.21513 1.08888,-3.12423 1.26639,-5.34376 0.24209,-3.035 0.52499,-3.8723 2.34958,-6.93862 1.8512,-3.10999 2.11035,-3.88844 2.40084,-7.22341 0.28196,-3.2296 0.506,-3.9416 1.65089,-5.24597 0.9835,-1.12021 1.32527,-1.96985 1.32527,-3.30081 0,-1.51987 0.63318,-3.42802 2.25368,-6.79624 0.46517,-0.96734 2.60305,-1.43157 3.21252,-0.69774 0.41201,0.49651 0.71389,0.48036 1.72397,-0.095 1.10787,-0.63034 1.47715,-0.62369 3.84097,0.0674 1.88063,0.5506 2.61635,0.98636 2.61635,1.5531 0,0.9028 3.84572,3.05208 5.16528,2.88688 0.46327,-0.059 1.44392,-0.53351 2.17966,-1.05658 0.9066,-0.64555 1.69834,-0.86009 2.46349,-0.66834 1.2009,0.30095 2.91918,-0.38067 3.52009,-1.39741 0.19936,-0.3389 0.88005,-0.6161 1.51038,-0.6161 0.6313,0 1.47051,-0.32278 1.86544,-0.71769 0.73761,-0.73762 0.9009,-0.72054 3.98812,0.41579 2.03439,0.74903 2.14168,0.89712 3.19827,4.39634 0.82211,2.72077 1.78663,4.0935 2.87551,4.0935 0.38257,0 1.13824,0.41581 1.67935,0.92273 0.58479,0.54967 1.89581,1.03192 3.2391,1.19046 1.70973,0.20221 2.19769,0.17468 2.99038,-0.5563 -0.0342,0.0294 -0.0713,0.057 -0.0988,0.0949 -0.59427,0.82876 2.11604,2.73974 2.51097,3.78687 0.38637,1.02146 0.34744,1.53695 -0.20125,2.66948 -0.66834,1.38128 -0.6617,1.41451 0.45186,2.14928 0.62182,0.41012 1.54456,0.74618 2.0496,0.74806 1.24457,0 4.70486,2.94292 4.73809,4.02324 0.0152,0.47563 -0.20031,1.09079 -0.47847,1.36895 -0.39302,0.39206 -0.39302,0.61706 0,1.01007 0.27816,0.27721 0.50504,0.88097 0.50504,1.34045 0,0.93699 1.55595,2.78532 2.34482,2.78532 0.28196,0 0.62657,-0.29618 0.76613,-0.65882 0.16518,-0.42815 0.65503,-0.61328 1.39835,-0.52688 0.95597,0.1111 1.23318,0.44524 1.68601,2.0287 0.89616,3.13467 0.82781,3.05588 2.00875,2.28122 0.97971,-0.64268 1.13825,-0.64363 2.10561,-0.009 0.5753,0.37687 1.16199,1.14679 1.30344,1.71068 0.27815,1.10786 -0.41581,3.64732 -1.41545,5.18522 -0.55252,0.8506 -0.54872,1.04046 0.0342,1.6841 0.52877,0.58384 1.32337,0.71485 4.06027,0.66832 3.7356,-0.0637 4.19887,-0.28763 5.77095,-2.77867 0.73193,-1.15722 1.29109,-1.58443 2.07713,-1.58443 1.81605,0 2.5907,-0.73192 3.35871,-3.17643 0.61517,-1.95658 0.99585,-2.4787 2.28027,-3.13468 0.84775,-0.43194 1.78854,-1.08413 2.09043,-1.44772 1.22082,-1.47145 2.97328,-0.59998 2.97328,1.47715 0,0.57338 0.29619,0.80787 1.02053,0.80787 0.57243,0 1.57398,0.55536 2.28312,1.26355 0.83351,0.83352 1.68601,1.26261 2.50718,1.26261 1.77712,0 2.30496,0.90566 2.39989,4.12008 0.0466,1.55595 0.11301,3.05302 0.14714,3.32738 l 0,9.5e-4 c 0.0437,0.34365 0.55346,0.4101 1.64139,0.21075 1.94991,-0.35696 4.24823,-0.32847 9.20181,0.11581 2.74735,0.24682 3.91787,0.2079 4.13051,-0.1367 0.16329,-0.26392 0.65125,-0.47943 1.08318,-0.47943 0.4329,0 1.35944,-0.69395 2.05814,-1.54264 0.71199,-0.86294 1.69644,-1.57398 2.23567,-1.61291 0.78889,-0.059 1.01957,-0.39776 1.27209,-1.87585 0.34461,-2.02113 1.36515,-3.06443 2.70179,-2.7616 0.76515,0.17372 1.23412,-0.4196 3.25997,-4.12007 1.58158,-2.8888 2.78248,-4.56815 3.61978,-5.06275 2.50053,-1.47716 3.96818,-3.06159 6.80382,-7.34018 l 2.88975,-4.36026 -0.62751,-1.50278 c -1.07653,-2.57457 -0.82211,-4.0261 1.10122,-6.30163 0.95122,-1.1259 2.5385,-3.76218 3.5277,-5.8602 1.00723,-2.13501 2.34767,-4.27671 3.04543,-4.86339 l 1.24647,-1.049 -1.6167,-1.82271 c -1.33665,-1.50563 -1.6167,-2.13218 -1.6167,-3.61407 0,-1.39077 0.21264,-1.93377 0.94742,-2.42458 1.57683,-1.0509 5.65039,-4.72289 12.6678,-11.41565 3.6663,-3.49826 6.88831,-6.50097 7.15791,-6.67281 0.26961,-0.17182 1.81606,-0.81737 3.43752,-1.43442 3.40902,-1.29677 5.26306,-2.47679 5.26306,-3.34732 0,-0.33607 0.42815,-0.80788 0.95217,-1.04617 0.52402,-0.23923 1.27305,-0.99299 1.66511,-1.67555 0.71581,-1.24646 1.66608,-1.81607 3.79161,-2.27079 0.68066,-0.1443 1.57209,-0.87053 2.19295,-1.78378 l 1.04615,-1.53887 -1.24552,-1.41733 c -0.68446,-0.77941 -1.24456,-1.89675 -1.24456,-2.48153 0,-1.52652 1.1145,-5.02383 2.55084,-8.00282 0.6816,-1.4126 1.23887,-3.07488 1.23887,-3.69479 0,-1.70308 -1.43444,-5.43301 -2.91918,-7.59177 l -1.32525,-1.92429 1.65941,-2.21478 c 0.91231,-1.21893 2.76728,-3.28181 4.12197,-4.58523 2.30212,-2.21573 2.62869,-2.38756 4.98966,-2.62489 2.40464,-0.24207 3.97578,-0.73098 11.10996,-3.4565 2.78626,-1.06323 3.32928,-1.4667 5.21084,-3.85995 1.96511,-2.50149 4.48366,-4.32133 5.97791,-4.32133 0.92844,0 0.80217,-0.55062 -0.37878,-1.66038 l -1.02718,-0.96545 1.00724,-2.77584 c 1.04805,-2.8888 2.20623,-4.15424 3.99572,-4.36784 0.58572,-0.0703 1.00437,-0.36454 0.94268,-0.66452 -0.25633,-1.25881 1.25975,-3.12994 3.19162,-3.94067 3.31789,-1.39265 4.41816,-2.08471 6.49624,-4.08778 1.27115,-1.22369 2.00023,-2.28788 2.00023,-2.91444 0,-1.25975 6.42789,-7.94681 9.68408,-10.07424 1.27399,-0.83256 2.64292,-1.9129 3.04257,-2.39895 0.8563,-1.0433 0.97022,-3.82958 0.25443,-6.22092 -0.43384,-1.44868 -0.39207,-1.77714 0.35599,-2.78533 0.48986,-0.66167 1.53981,-1.32526 2.49198,-1.57587 0.90471,-0.23829 2.36098,-0.70535 3.2372,-1.03762 1.4164,-0.53636 1.5645,-0.72907 1.3452,-1.73157 -0.20031,-0.9104 -0.0171,-1.29299 0.94742,-1.9803 0.65694,-0.46801 1.88632,-0.98065 2.73121,-1.13918 1.98694,-0.37309 2.29547,-1.24742 0.89617,-2.54514 -1.31102,-1.21419 -1.47525,-1.23318 -3.16979,-0.35696 -1.14869,0.5943 -9.00532,1.4221 -14.20477,1.49709 -1.91954,0.0275 -3.091,-1.3879 -2.80051,-3.38529 0.24208,-1.66797 2.11225,-4.67827 2.9059,-4.67827 0.30092,0 0.86862,-0.67308 1.26069,-1.49519 0.39208,-0.82211 1.23698,-1.79613 1.87776,-2.16256 0.94838,-0.54398 1.16388,-0.96357 1.16388,-2.26131 0,-1.98598 1.14204,-3.3435 2.81095,-3.3435 0.67498,0 1.8474,-0.47371 2.60685,-1.05187 0.75851,-0.57908 1.59868,-1.0528 1.86637,-1.0528 0.65598,0 0.62371,-0.18417 -0.37877,-2.15116 -1.72967,-3.39099 -1.00344,-6.30638 1.72208,-6.90445 0.65408,-0.14335 1.41543,-0.53353 1.69169,-0.86578 0.70725,-0.8506 2.46255,-0.75092 4.41436,0.25442 2.51477,1.29392 4.66974,1.42967 7.35253,0.46232 2.7483,-0.98635 3.16126,-1.51703 2.77774,-3.56188 z"
     inkscape:connector-curvature="0"
     style="fill:#3f600f;fill-opacity:1;stroke:none" />
  <flowRoot
     xml:space="preserve"
     id="flowRoot4233"
     style="font-size:40px;font-style:normal;font-weight:normal;line-height:125%;letter-spacing:0px;word-spacing:0px;fill:#ffffff;fill-opacity:1;stroke:none;font-family:Sans"
     transform="matrix(1.8047142,0,0,1.8047142,-156.13078,-383.29662)"><flowRegion
       id="flowRegion4235"><rect
         id="rect4237"
         width="422.24377"
         height="138.3909"
         x="120.20815"
         y="296.76807"
         style="fill:#ffffff;fill-opacity:1;stroke:none" /></flowRegion><flowPara
       id="flowPara4239"
       style="font-style:normal;font-variant:normal;font-weight:bold;font-stretch:normal;line-height:128.99999619%;letter-spacing:-2.77052188px;word-spacing:0px;fill:#ffffff;fill-opacity:1;stroke:none;font-family:Purisa;-inkscape-font-specification:Purisa Bold">OpenData</flowPara></flowRoot>  <flowRoot
     xml:space="preserve"
     id="flowRoot4233-4"
     style="font-size:40px;font-style:normal;font-weight:normal;line-height:125%;letter-spacing:0px;word-spacing:0px;fill:#ffffff;fill-opacity:1;stroke:none;font-family:Sans"
     transform="matrix(2.1359706,0,0,2.1359706,-109.969,-409.48326)"><flowRegion
       id="flowRegion4235-9"><rect
         id="rect4237-3"
         width="422.24377"
         height="138.3909"
         x="120.20815"
         y="296.76807"
         style="fill:#ffffff;fill-opacity:1;stroke:none" /></flowRegion><flowPara
       id="flowPara4239-0"
       style="font-size:16.30489159px;font-style:normal;font-variant:normal;font-weight:normal;font-stretch:normal;line-height:93.00000072%;fill:#ffffff;fill-opacity:1;stroke:none;font-family:Ubuntu Mono;-inkscape-font-specification:Ubuntu Mono">Bourgogne</flowPara><flowPara
       style="font-size:16.30489159px;font-style:normal;font-variant:normal;font-weight:normal;font-stretch:normal;line-height:93.00000072%;letter-spacing:0px;fill:#ffffff;fill-opacity:1;stroke:none;font-family:Ubuntu Mono;-inkscape-font-specification:Ubuntu Mono"
       id="flowPara4333">Franche Comté</flowPara></flowRoot>  <flowRoot
     xml:space="preserve"
     id="flowRoot4306"
     style="font-size:40px;font-style:normal;font-weight:normal;line-height:125%;letter-spacing:0px;word-spacing:0px;fill:#000000;fill-opacity:1;stroke:none;font-family:Sans"
     transform="translate(-119.15725,-195.84132)"><flowRegion
       id="flowRegion4308"><rect
         id="rect4310"
         width="671.75146"
         height="469.72095"
         x="5.0507627"
         y="161.40764" /></flowRegion><flowPara
       id="flowPara4312" /></flowRoot></svg>
