<?xml version="1.0" encoding="UTF-8" standalone="no"?>
<!-- Created with Inkscape (http://www.inkscape.org/) -->

<svg
   xmlns:dc="http://purl.org/dc/elements/1.1/"
   xmlns:cc="http://creativecommons.org/ns#"
   xmlns:rdf="http://www.w3.org/1999/02/22-rdf-syntax-ns#"
   xmlns:svg="http://www.w3.org/2000/svg"
   xmlns="http://www.w3.org/2000/svg"
   xmlns:sodipodi="http://sodipodi.sourceforge.net/DTD/sodipodi-0.dtd"
   xmlns:inkscape="http://www.inkscape.org/namespaces/inkscape"
   width="405.68207"
   height="306.27316"
   id="svg2"
   version="1.1"
   inkscape:version="0.48.4 r9939"
   sodipodi:docname="logo2.svg"
   inkscape:export-filename="/home/william/Bureau/OpenDataBFC/logo2.png"
   inkscape:export-xdpi="90"
   inkscape:export-ydpi="90">
  <defs
     id="defs4">
    <inkscape:perspective
       inkscape:vp_x="0 : 961.01868 : 1"
       inkscape:vp_y="0 : 1000 : 0"
       inkscape:vp_z="2000 : 961.01868 : 1"
       id="perspective2786"
       sodipodi:type="inkscape:persp3d"
       inkscape:persp3d-origin="1000 : 640.67912 : 1" />
    <inkscape:perspective
       inkscape:vp_x="0 : 961.01868 : 1"
       inkscape:vp_y="0 : 1000 : 0"
       inkscape:vp_z="2000 : 961.01868 : 1"
       id="perspective319"
       sodipodi:type="inkscape:persp3d"
       inkscape:persp3d-origin="1000 : 640.67912 : 1" />
    <inkscape:perspective
       inkscape:vp_x="0 : 961.01868 : 1"
       inkscape:vp_y="0 : 1000 : 0"
       inkscape:vp_z="2000 : 961.01868 : 1"
       id="perspective229"
       sodipodi:type="inkscape:persp3d"
       inkscape:persp3d-origin="1000 : 640.67912 : 1" />
  </defs>
  <sodipodi:namedview
     id="base"
     pagecolor="#ffffff"
     bordercolor="#666666"
     borderopacity="1.0"
     inkscape:pageopacity="0.0"
     inkscape:pageshadow="2"
     inkscape:zoom="0.98994949"
     inkscape:cx="204.86737"
     inkscape:cy="74.582897"
     inkscape:document-units="px"
     inkscape:current-layer="svg2"
     showgrid="false"
     inkscape:window-width="1920"
     inkscape:window-height="1030"
     inkscape:window-x="0"
     inkscape:window-y="0"
     inkscape:window-maximized="1"
     showguides="true"
     inkscape:guide-bbox="true"
     fit-margin-top="0"
     fit-margin-left="0"
     fit-margin-right="0"
     fit-margin-bottom="0" />
  <metadata
     id="metadata7">
    <rdf:RDF>
      <cc:Work
         rdf:about="">
        <dc:format>image/svg+xml</dc:format>
        <dc:type
           rdf:resource="http://purl.org/dc/dcmitype/StillImage" />
        <dc:title></dc:title>
      </cc:Work>
    </rdf:RDF>
  </metadata>
  <path
     id="path3202"
     d="m 404.78153,119.26831 c -0.17944,-0.95553 -0.50543,-1.37124 -1.53722,-1.9604 -1.09609,-0.6258 -1.31142,-0.92039 -1.31142,-1.81236 0,-0.59066 -0.27215,-1.32937 -0.60785,-1.65834 -0.33272,-0.32674 -0.806,-1.11553 -1.05049,-1.75404 -0.66617,-1.73909 -0.96076,-1.98956 -2.33797,-1.98956 -0.86132,0 -1.5731,0.26318 -2.24825,0.83066 -0.56375,0.47478 -1.2075,0.74693 -1.49909,0.63478 -0.82767,-0.31776 -1.75255,-2.49873 -1.8161,-4.28417 -0.0748,-2.08526 0.96226,-5.19409 1.87592,-5.624 0.37234,-0.17496 0.77907,-0.62281 0.90468,-0.99441 0.39851,-1.18431 0.20187,-3.58285 -0.38356,-4.66922 -0.4643,-0.86206 -0.49869,-1.24188 -0.19215,-2.12115 0.33421,-0.96001 0.28113,-1.18581 -0.5144,-2.1832 -0.54505,-0.68338 -1.57011,-1.37423 -2.65573,-1.78993 -0.97273,-0.3716 -2.45611,-1.20151 -3.29724,-1.84451 -0.84114,-0.64151 -1.79442,-1.16787 -2.11816,-1.16787 -0.32449,0 -1.0116,-0.21009 -1.5275,-0.46729 -0.51589,-0.25646 -1.90956,-0.74693 -3.09462,-1.08936 l -2.15554,-0.62207 -1.19852,-2.26844 c -0.65945,-1.24787 -1.29871,-2.1062 -1.42133,-1.90806 -0.3215,0.51963 -1.71142,-0.0778 -3.40117,-1.46245 -1.02132,-0.83665 -1.4273,-1.4318 -1.50282,-2.2004 -0.0927,-0.94506 -0.30355,-1.13497 -2.02844,-1.82582 -1.98956,-0.79702 -3.74285,-1.83404 -6.03372,-3.56715 -0.72973,-0.55178 -2.19816,-1.45124 -3.26434,-1.99853 -1.82208,-0.93534 -2.87032,-2.11891 -2.87032,-3.24042 0,-0.24972 -0.66767,-1.05347 -1.48264,-1.78619 l -1.48263,-1.33235 -1.2232,0.69234 c -0.82169,0.46431 -1.58282,1.34357 -2.31629,2.67069 -1.04973,1.90208 -1.16936,2.00077 -3.09985,2.54433 -1.10432,0.31178 -2.52639,0.88749 -3.16042,1.27852 -0.63851,0.39403 -1.4146,0.62655 -1.73834,0.51964 -0.75964,-0.25122 -2.83817,-3.43332 -2.6176,-4.00678 0.0927,-0.243 -0.0568,-0.62955 -0.33272,-0.85833 -0.27589,-0.22879 -0.79253,-0.98618 -1.14768,-1.68227 -0.50841,-0.99665 -0.83814,-1.26656 -1.55067,-1.2703 -1.04375,-0.006 -1.42357,-0.23327 -1.93573,-1.1559 -0.60262,-1.08637 -2.58097,-1.20674 -4.98249,-0.30281 -1.86769,0.70282 -2.2333,0.73945 -3.89762,0.39029 -1.81461,-0.38057 -1.85124,-0.37309 -3.15593,0.67515 -0.72599,0.58318 -1.46544,1.06095 -1.64339,1.06095 -0.1772,0 -0.37982,0.16822 -0.44786,0.37309 -0.068,0.20486 -0.56599,0.37159 -1.10581,0.36935 -0.53982,-0.002 -1.25235,0.13906 -1.58357,0.31327 -0.94431,0.49795 -2.33124,-0.54879 -2.07629,-1.56712 0.23029,-0.9159 -0.53533,-1.4789 -2.00899,-1.4789 -1.83554,0 -4.05763,-3.21126 -2.60714,-3.76753 0.64449,-0.24748 0.63552,-1.19553 -0.0202,-2.13161 -0.28561,-0.40749 -0.43365,-1.01011 -0.32823,-1.33983 0.12113,-0.38281 -0.10392,-0.87478 -0.62281,-1.36226 l -0.81272,-0.76338 -0.91291,0.71777 c -0.72076,0.56748 -1.30095,0.70356 -2.7649,0.65047 -2.87854,-0.10392 -5.64643,1.82956 -5.64643,3.94398 0,0.35963 -0.2243,0.83964 -0.49795,1.06693 -0.2729,0.22729 -0.4972,0.61833 -0.4972,0.86954 0,0.91889 -1.28674,1.78395 -2.65274,1.78395 -0.72973,0 -1.32638,0.14356 -1.32638,0.32001 0,0.17645 -0.44262,0.77309 -0.98319,1.32637 -0.77234,0.79029 -1.26955,1.00637 -2.31479,1.00637 -1.1275,0 -1.36226,-0.12113 -1.53049,-0.79328 -0.16823,-0.66693 -0.33645,-0.75665 -1.05796,-0.56375 -0.57945,0.15477 -0.87702,0.47702 -0.91515,0.98917 -0.0307,0.41795 -0.25122,0.88076 -0.48898,1.02731 -0.28935,0.17869 -0.36262,0.61757 -0.22206,1.31964 0.25421,1.2703 -0.53384,2.99518 -1.36824,2.99518 -0.31627,0 -1.03329,-0.13234 -1.59479,-0.29309 -0.83515,-0.23925 -1.09011,-0.18019 -1.40712,0.32748 -0.21234,0.34094 -0.38729,0.78506 -0.38729,0.98693 0,0.20187 -0.30879,0.80151 -0.68562,1.33086 -0.49347,0.69384 -0.65646,1.35478 -0.5802,2.3619 0.0987,1.30992 0.0307,1.43703 -1.05496,1.97461 -1.53124,0.75814 -2.42246,0.74692 -3.1335,-0.0381 -0.7402,-0.8187 -2.18769,-0.99664 -2.83967,-0.35065 -0.30953,0.30654 -0.45458,0.91066 -0.37832,1.57385 0.29832,2.60639 -0.42991,3.23368 -3.75556,3.23368 h -1.98208 l -0.3873,2.13611 c -0.44337,2.45087 -0.32748,3.00415 0.63104,3.00415 1.27104,0 1.89759,0.94506 1.89759,2.86209 0,1.526 -0.11439,1.84003 -0.84562,2.31929 -0.46505,0.30505 -0.77533,0.7372 -0.6901,0.9615 0.086,0.22356 -0.0538,0.81272 -0.31103,1.30843 -0.40673,0.78282 -0.403,0.99516 0.0262,1.6075 0.56748,0.81048 0.64449,2.30956 0.16523,3.20602 -0.34916,0.65123 -2.4404,1.50357 -2.93686,1.19703 -0.16149,-0.10019 -0.56524,0.11738 -0.89571,0.483 -0.39926,0.44187 -1.00039,0.65795 -1.78544,0.6415 -0.65048,-0.0127 -1.90358,0.0464 -2.78359,0.13159 -1.93947,0.18692 -2.56303,-0.30804 -3.22846,-2.56302 -0.25047,-0.84936 -0.53533,-1.53797 -0.63253,-1.53049 -0.0972,0.007 -0.84786,0.89646 -1.66806,1.9761 -1.40861,1.85273 -1.5731,1.96339 -2.91817,1.97685 -0.7843,0.007 -1.87965,-0.22131 -2.43442,-0.50842 -0.90768,-0.46954 -1.06469,-0.47103 -1.57236,-0.0112 -0.92337,0.83516 -3.87893,1.3346 -5.04455,0.8516 -0.54206,-0.2243 -1.06618,-0.32673 -1.16562,-0.22729 -0.10019,0.0994 -0.20711,0.91889 -0.24001,1.82208 -0.0501,1.39142 -0.25047,1.85274 -1.32039,3.0363 -1.04599,1.1589 -1.24263,1.59703 -1.15814,2.59069 0.0254,0.3058 -0.69534,1.58881 -1.09609,2.42022 -0.27365,-0.15477 -0.48375,-0.009 -1.0288,0.50244 -0.70057,0.6572 -0.95328,0.70954 -1.72713,0.35813 -0.49869,-0.22804 -1.06169,-0.82244 -1.2516,-1.32188 -0.29234,-0.76637 -0.50019,-0.87179 -1.33684,-0.67366 -1.20002,0.28412 -2.56527,1.45647 -2.99742,2.57574 -0.35889,0.93085 -2.49499,1.97012 -3.36304,1.63665 -0.94805,-0.36411 -2.06582,-2.9406 -1.82731,-4.21089 0.31402,-1.6718 -1.81012,-4.17576 -4.581,-5.3997 l -2.10395,-0.92936 0.23253,-1.51329 0.23327,-1.51329 -0.68263,1.07515 c -1.49833,2.35966 -2.16451,2.78883 -3.94173,2.54583 -0.8987,-0.12336 -1.79367,-0.3843 -1.98956,-0.5787 -0.19514,-0.19589 -0.60487,-0.35813 -0.90992,-0.36262 -0.30505,-0.004 -0.95851,-0.32374 -1.45123,-0.70879 -0.49197,-0.38505 -1.15217,-0.70356 -1.46694,-0.70805 -1.02506,-0.0149 -1.87217,-1.31366 -1.63441,-2.50695 0.18393,-0.91889 0.10766,-1.08412 -0.50244,-1.08412 -0.41122,0 -0.84262,-0.33347 -1.00711,-0.77908 -0.28337,-0.76562 -0.30505,-0.76038 -1.26208,0.31402 -0.67813,0.76188 -1.4116,1.15142 -2.41872,1.28675 -1.28525,0.17196 -1.55965,0.068 -2.47928,-0.94132 -1.35254,-1.48189 -1.58133,-2.24975 -0.96076,-3.21201 0.71328,-1.10655 0.98094,-2.35965 0.56075,-2.61984 -0.19589,-0.12113 -0.26692,-0.56001 -0.15851,-0.97497 0.10842,-0.41571 0.10318,-1.13198 -0.0127,-1.5918 -0.18392,-0.73047 -0.39552,-0.82244 -1.67628,-0.72748 -1.28151,0.0949 -1.52525,-0.0105 -1.92675,-0.83441 -0.63702,-1.30693 -0.23403,-3.06621 0.75888,-3.31518 1.14245,-0.28711 5.21652,-2.99294 5.45952,-3.62696 0.13084,-0.33945 -0.34094,-1.07441 -1.26432,-1.97087 -1.06244,-1.03104 -1.47292,-1.72115 -1.47292,-2.47555 0,-1.46992 -0.33645,-2.17947 -1.03403,-2.17947 -1.18431,0 -2.19143,-1.0587 -2.19143,-2.30507 0,-0.65496 -0.21533,-1.36899 -0.47926,-1.58806 -0.26393,-0.21907 -0.67141,-1.03777 -0.90618,-1.82059 -0.23327,-0.78206 -0.56823,-1.5103 -0.74169,-1.61721 -0.61309,-0.37982 -1.49385,0.26841 -2.17199,1.59852 -0.89123,1.74806 -1.58881,1.98134 -2.98845,0.99964 -2.29985,-1.61423 -2.58471,-2.70359 -0.99964,-3.83257 0.56524,-0.40225 1.3017,-1.14992 1.63666,-1.66208 0.55926,-0.8531 0.56225,-1.00188 0.0426,-1.79516 -0.50243,-0.76637 -0.80823,-0.85833 -2.67816,-0.80749 -3.45052,0.0949 -4.69539,-1.20749 -3.45126,-3.61351 0.28486,-0.55103 0.42168,-1.36824 0.30505,-1.81535 -0.19141,-0.73421 -0.36412,-0.79253 -1.78096,-0.59814 -2.14582,0.29459 -4.87558,-0.34841 -5.83933,-1.37497 -0.73721,-0.78505 -0.87403,-0.80898 -1.96189,-0.35514 -1.04376,0.43589 -1.30918,0.41346 -2.47406,-0.21085 -0.71776,-0.38505 -1.9417,-0.69982 -2.71854,-0.69982 -0.77758,0 -1.51254,-0.1615 -1.63516,-0.35813 -0.12262,-0.19664 -0.72076,-0.35814 -1.33011,-0.35814 -0.83739,0 -1.56712,0.4329 -2.98023,1.76974 l -1.87142,1.77049 0.83291,0.78282 c 0.45757,0.42991 0.93907,1.26357 1.06842,1.85198 0.37459,1.70694 -0.40823,2.17872 -3.82958,2.30882 -1.73984,0.0665 -3.91856,0.42842 -5.34661,0.88824 l -2.40976,0.77608 -1.30469,-0.76935 c -1.1058,-0.65272 -1.53646,-0.71927 -2.81573,-0.43665 -0.82992,0.18318 -2.34321,0.5144 -3.36005,0.73646 -1.30768,0.28561 -2.24526,0.29533 -3.19406,0.0329 -1.11777,-0.30879 -1.41609,-0.27215 -1.77273,0.21533 -0.23552,0.32225 -0.35664,0.86207 -0.26767,1.19927 0.29608,1.13198 -0.8845,2.78807 -2.25722,3.16639 -0.70431,0.1944 -1.55068,0.26692 -1.88115,0.16225 -2.04564,-0.65122 -2.74695,-1.11329 -3.82061,-2.52041 -1.07516,-1.40787 -1.22544,-1.49609 -1.43254,-0.84263 -0.47104,1.48339 -3.07294,1.32638 -3.35332,-0.20261 -0.21159,-1.1574 -0.70506,-1.38619 -1.47964,-0.68562 -0.39851,0.36038 -0.72525,0.87253 -0.72525,1.13721 0,0.72225 -3.2464,2.6176 -4.49651,2.62508 -1.21496,0.008 -1.95292,-0.54281 -1.95292,-1.45572 0,-0.33122 -0.33421,-0.69085 -0.74393,-0.79777 -0.58244,-0.15177 -0.82394,0.0336 -1.10955,0.85459 -0.41945,1.20226 -0.25944,1.13049 -2.70658,1.22694 -1.42506,0.0561 -2.01498,-0.0822 -2.46657,-0.58095 -0.56225,-0.62131 -0.64674,-0.62356 -1.62096,-0.0478 -0.79104,0.4673 -1.25609,0.52562 -2.01199,0.25571 -0.58842,-0.21085 -1.77423,-0.23477 -2.95406,-0.0613 -1.08337,0.16075 -2.61536,0.32449 -3.404151,0.36337 -1.3832,0.0703 -1.43105,0.0351 -1.36525,-1.00263 0.10168,-1.62245 0.72973,-5.10287 0.99889,-5.53951 0.13159,-0.21234 0.0381,-0.98693 -0.20711,-1.72264 l -0.44636,-1.3361 -0.30954,1.17834 c -0.70057,2.65947 -3.99182,2.08077 -5.13128,-0.9017 -0.65122,-1.70544 -0.32972,-2.60564 0.93086,-2.60564 0.35813,0 0.73571,-0.13682 0.83888,-0.30355 0.20861,-0.33721 -1.23067,-1.74732 -2.74321,-2.6849 -0.85683,-0.5316 -0.98468,-0.83814 -0.98468,-2.36639 0,-1.46843 -0.21384,-2.03666 -1.30544,-3.46696 -1.16637,-1.52675 -1.26507,-1.81909 -0.92338,-2.72377 0.34617,-0.9174 0.26543,-1.12749 -0.84412,-2.20489 -0.67366,-0.65496 -1.22619,-1.36226 -1.22619,-1.57161 0,-0.26318 -0.33271,-0.25496 -1.07515,0.0254 -0.93459,0.3529 -1.17534,0.3058 -1.83629,-0.35514 -0.91739,-0.9174 -0.98393,-2.39854 -0.14953,-3.31967 0.48524,-0.53758 0.5286,-0.82693 0.21084,-1.42133 -0.44486,-0.82992 -1.17908,-1.03478 -0.87552,-0.24299 0.26991,0.7043 -1.67928,2.78059 -2.74023,2.91816 -0.48299,0.0636 -1.38992,0.31702 -2.01423,0.5645 -1.39815,0.55253 -2.10246,0.0987 -2.46882,-1.59255 -0.13607,-0.62655 -0.51663,-1.54245 -0.8471,-2.03516 -0.32973,-0.49272 -0.79029,-1.33909 -1.02207,-1.8819 -0.50244,-1.16936 -0.96973,-1.2217 -2.40901,-0.26841 -0.5914,0.39178 -1.30618,0.71328 -1.58955,0.71477 -0.68861,0.003 -2.17199,-1.42132 -2.17199,-2.086 0,-0.2916 0.80599,-1.38245 1.79143,-2.42396 1.97909,-2.09274 2.13086,-2.48078 1.07515,-2.75742 -1.03553,-0.27066 -0.89123,-1.63292 0.32748,-3.10285 1.2845,-1.54843 0.98095,-2.44638 -1.16039,-3.44228 -1.33235,-0.61908 -1.49011,-0.82394 -1.44376,-1.86096 0.0419,-0.91067 -0.1742,-1.32787 -0.98468,-1.90582 -0.57122,-0.40674 -1.03852,-0.95852 -1.03852,-1.22768 0,-0.26916 -0.36262,-0.53982 -0.80599,-0.60263 -0.5944,-0.0845 -0.83814,-0.39402 -0.92712,-1.17683 -0.15701,-1.3824496 -3.43107,-5.2075496 -4.45688,-5.2075496 -0.41047,0 -1.26581,-0.18841 -1.90208,-0.4187 -1.04674,-0.37907 -1.26357,-0.32748 -2.29162,0.53758 -1.21945,1.02581 -1.40039,1.08712 -2.02096,0.68113 -0.6258,-0.40898 -1.92451,-2.6991 -1.92451,-3.39817 -7.5e-4,-0.34468 -0.22355,-0.6273 -0.49496,-0.6273 -0.27141,0 -0.69608,-0.24374 -0.94356,-0.54207 -0.62805,-0.75664001 -1.42881,-0.0336 -1.42881,1.29049 0,0.60711 -0.25421,1.14992 -0.6273,1.34431 -0.90319,0.4688 -6.42551,0.53085 -6.70738,0.0755 -0.4172,-0.6744 -1.74133,-0.39627 -2.75966,0.5787 -0.92562,0.88749 -1.09385,0.92562 -2.37087,0.54356 -1.02805,-0.30804 -1.64488,-0.30954 -2.45237,-0.004 -1.18506,0.44711 -2.72602,0.19963 -3.42584,-0.55029 -0.37608,-0.40224 -0.64748,-0.39776 -1.65983,0.0247 -0.6759,0.28187 -1.65012,0.40897 -2.20639,0.2871 -0.85608,-0.18841 -1.10431,-0.0456 -1.75852,1.0131 -0.92862,1.50282 -1.89685,1.82507 -2.69238,0.89646 -0.46729,-0.54505 -0.86132,-0.63851 -1.92226,-0.45234 -1.58956,0.27813 -2.29088,1.03852 -2.00676,2.17423 0.14654,0.58543 -0.11514,1.26955 -0.89123,2.3245196 -0.60486,0.82244 -1.03253,1.60301 -0.95104,1.7346 0.15328,0.24823 0.54207,1.94171 0.65721,2.86658 0.0366,0.2901 0.41944,0.85459 0.8516,1.25385 0.53309,0.49421 0.8202,1.24114 0.89496,2.33125 0.0987,1.42431 0.007,1.65385 -0.81795,2.05236 -0.62132,0.29982 -1.31292,1.28151 -2.08975,2.96751 -1.16936,2.53761 -2.03143,3.39968 -3.01985,3.01986 -0.32973,-0.12636 -0.76562,0.14355 -1.13273,0.70356 -0.32748,0.50094 -0.94506,1.01609 -1.37048,1.14543 -1.5648802,0.47627 -2.7963002,2.30059 -1.5529202,2.30059 0.26169,0 0.86207,0.41197 1.3353502,0.9159 0.53084,0.56525 1.11403,0.85011 1.52226,0.74319 0.36412,-0.095 0.94057,0.0972 1.28076,0.42692 0.34019,0.33048 1.0116,0.64599 1.49161,0.70132 1.13422,0.13084 2.53611,1.81535 2.36788,2.84714 -0.0748,0.45683 0.15402,1.05347 0.53608,1.3989 0.36562,0.33047 0.66543,0.94954 0.66543,1.37347 0,0.42394 0.23627,1.08488 0.52562,1.46769 0.28935,0.38281 0.5301,1.20749 0.53757,1.83404 0.012,1.18431 0.78581,2.2647 1.62171,2.2647 0.77833,0 2.71256,1.81311 2.60639,2.44415 -0.0606,0.36262 0.40075,0.81496 1.24712,1.2187 1.58731,0.75964 1.89535,2.20415 0.56,2.62882 -0.74991,0.23776 -0.75515,0.26917 -0.12411,0.73123 0.36262,0.26542 0.78207,1.17235 0.9316,2.01498 0.14954,0.84263 0.38879,2.14507 0.5316,2.89349 0.2228,1.16413 0.12934,1.50208 -0.6445,2.32901 -0.49795,0.53159 -1.0116,1.31815 -1.1402,1.74731 -0.1286,0.42916 -0.79253,1.1088 -1.47366,1.51105 -0.68113,0.40225 -1.23815,0.88898 -1.23815,1.08412 0,0.1944 -0.55253,0.61534 -1.22918,0.93609 -0.73795,0.35066 -1.36973,0.98618 -1.57983,1.59105 -0.25122,0.72076 -0.74319,1.13572 -1.72712,1.45497 -1.65909,0.53908 -2.05237,1.12824 -2.0748,3.10509 -0.0142,1.21273 0.13608,1.57535 0.77085,1.8647 0.99815,0.45533 1.74208,2.92789 1.19179,3.95743 -0.2071,0.38655 -0.62954,0.84487 -0.93907,1.01759 -0.50767,0.28561 -0.50767,0.43888 0.008,1.67105 0.64972,1.55665 0.73421,3.50883 0.19589,4.51669 -0.2744,0.51365 -0.75441,0.69384 -1.84676,0.69384 -1.49235,0 -5.3069802,1.53273 -5.3069802,2.13237 0,0.57496 -2.40975,1.16936 -3.14322,0.77683 -0.45384,-0.24225 -1.43254,-0.22879 -3.02135,0.0441 -2.01797,0.34617 -2.34769,0.50767 -2.32975,1.14319 0.0112,0.40749 -0.1129,1.54545 -0.27514005,2.53088 -0.27216,1.6531 -0.24898,1.75255 0.30654005,1.29123 0.8516,-0.70655 2.37387,0.012 2.37387,1.12076 7.4e-4,0.563 0.61234,1.286 1.98507,2.3462 1.88339,1.45423 1.97161,1.59479 1.75105,2.77088 -0.20486,1.09385 -0.1271,1.27852 0.66618,1.57983 1.02655,0.39029 2.0456302,1.68526 2.0456302,2.60041 0,0.34094 -0.4082302,1.0288 -0.9076702,1.5275 -0.86431,0.86506 -0.88151,0.95702 -0.35814,1.96937 0.30206,0.58393 0.54879,1.46544 0.54879,1.9589 0,0.49347 0.36263,1.29797 0.8060002,1.78769 2.63554,2.91069 2.63405,2.90471 1.02356,4.78511 -0.77982,0.91067 -1.3458102,0.9802 -3.2740602,0.40225 -1.12151,-0.33571 -1.48937,-0.3058 -2.18171,0.17869 -0.45758,0.32076 -1.0789,0.58468 -1.38021,0.58543 -0.30056,0.002 -1.00936,0.243 -1.5731,0.53758 -0.56375,0.29458 -1.26133,0.53533 -1.54694,0.53533 -0.31103005,0 0.19141,0.82917 1.24787,2.05984 0.97272,1.13348 1.88189,2.54359 2.02021,3.135 0.13832,0.59141 0.97422,2.5533 1.85647,4.36043 1.8819,3.85201 2.25873,5.48792 1.42432,6.18027 -0.31477,0.26168 -0.57272,0.87252 -0.57272,1.35776 0,1.09535 -2.18395,6.14139 -3.65687,8.44946 -1.50058,2.35218 -1.16786,3.67332 1.21348,4.81427 0.91889,0.44038 2.27367,1.53871 3.01761,2.44639 0.74244,0.90693 2.04339,2.12489 2.8905002,2.70807 2.03891,1.40264 2.37686,2.13984 2.30284,5.03334 -0.0426,1.67778 0.12561,2.7948 0.54057,3.59631 1.04076,2.01199 3.00639,8.25282 3.01835,9.58068 0.008,0.70057 0.24823,1.58582 0.53758,1.96863 0.68487,0.90543 0.69608,5.59334 0.0179,7.54103 l -0.4972,1.4288 2.00899,1.33385 c 3.0692,2.03891 3.95445,4.35445 2.75817,7.21804 -0.7402,1.77049 -0.67365,3.15967 0.24075,5.04156 l 0.77833,1.60302 -1.10282,2.43816 c -1.54095,3.4049 -1.60974,3.76827 -1.00113,5.22624 0.29608,0.70954 0.64225,2.6333 0.7686,4.27447 0.1929,2.50769 0.13683,3.06022 -0.35514,3.46771 -0.34991,0.29084 -0.58319,1.02356 -0.58319,1.8303 0,0.78431 -0.23402,1.53946 -0.5615,1.81087 -1.58357,1.31441 -2.03292,4.13089 -1.00487,6.29765 0.86431,1.82283 3.38771,3.79369 5.86699,4.58324 2.00825,0.64001 2.29835,0.87552 4.03669,3.28004 1.66507,2.30209 3.4221,3.73388 4.58249,3.73388 0.19589,0 0.87552,-0.47851 1.5103,-1.06319 2.46433,-2.26994 5.08941,-3.98211 5.81241,-3.7922 0.39402,0.10393 1.06244,0.18991 1.48413,0.1929 0.55403,0 1.00413,0.47402 1.61273,1.68675 1.02507,2.04115 1.61274,2.43218 3.20379,2.12638 1.00039,-0.19215 1.40413,-0.56299 2.21984,-2.04114 l 0.99665,-1.80713 2.5862,0.23851 c 2.58247,0.23776 3.62547,0.8015 3.25761,1.76002 -0.0964,0.25047 0.30206,0.93235 0.886,1.51553 1.00113,1.00114 1.043,1.15591 0.73945,2.77387 -0.58618,3.13948 0.26617,3.14696 3.2778,0.0284 2.47928,-2.56825 3.16041,-2.93237 4.31781,-2.31255 0.70132,0.37458 0.75365,0.34842 0.49047,-0.24898 -0.16224,-0.36785 -0.36636,-1.38319 -0.45383,-2.25647 -0.17795,-1.77797 0.58617,-2.77836 1.67778,-2.19443 0.32,0.17122 1.01758,0.22805 1.54992,0.12636 l 0.96899,-0.18542 -0.70356,-1.37946 c -0.90917,-1.78245 -0.88375,-2.06432 0.31925,-3.51406 0.8845,-1.06619 1.09684,-1.16039 1.78171,-0.79403 0.42842,0.22953 0.77833,0.643 0.77833,0.91964 0,0.32299 0.48225,0.54355 1.34357,0.61384 1.27029,0.10542 1.34581,0.18018 1.3817,1.3817 0.0202,0.69832 0.22205,1.61422 0.44785,2.03666 0.2258,0.42094 0.41047,1.17459 0.41047,1.67329 0,0.53982 0.2901,1.0617 0.71702,1.29049 0.39327,0.21084 0.71627,0.70729 0.71627,1.10506 0,0.39626 0.40299,1.09459 0.89571,1.55067 0.49197,0.45608 0.89496,1.08263 0.89496,1.39142 0,0.30879 0.46581,0.89272 1.03553,1.29871 0.61235,0.43589 1.64713,1.97311 2.53387,3.76154 1.24413,2.50994 1.43104,3.1507 1.10207,3.76604 -0.31328,0.58617 -0.29085,0.74019 0.10991,0.74019 0.86132,0 1.26282,0.83366 1.71217,3.54846 0.34393,2.08601 0.33944,2.87256 -0.0239,3.87818 -0.53159,1.46993 -0.0763,2.03666 1.366,1.69647 0.52188,-0.12336 1.09684,0.0247 1.4946,0.38505 0.35515,0.3215 1.18282,0.87403 1.83853,1.22768 1.16263,0.62655 1.22618,0.62356 2.5077,-0.11065 1.28973,-0.7387 1.32936,-0.74095 2.05984,-0.0793 0.41047,0.37009 0.74543,0.88001 0.74543,1.13197 0,0.25197 0.32224,0.56001 0.71552,0.68487 0.78581,0.24898 1.26207,1.57684 0.96899,2.69835 -0.13459,0.5144 0.0733,0.85235 0.73496,1.19927 0.84038,0.44038 0.98917,0.40599 1.66955,-0.38131 0.803,-0.92936 1.16189,-0.98319 4.091271,-0.61459 1.53572,0.1929 1.98657,0.40674 2.29611,1.08712 0.21234,0.46655 0.65047,0.84786 0.97272,0.84786 0.32299,0 1.20375,0.63253 1.9589,1.40563 1.22021,1.24936 1.36974,1.59777 1.34731,3.13424 -0.0314,2.18396 -0.37982,3.72043 -1.00936,4.44567 -0.26991,0.31178 -0.38505,0.67291 -0.25421,0.8045 0.13085,0.13084 0.0232,0.88823 -0.23925,1.68376 -0.41347,1.25235 -0.40001,1.60675 0.0972,2.64975 0.44037,0.92263 0.52561,1.83778 0.3671,3.92977 -0.17346,2.29685 -0.11962,2.72602 0.34094,2.72602 0.30131,0 0.63179,0.32299 0.73496,0.71702 0.25571,0.97796 -1.34805,2.20937 -2.77685,2.13386 -2.11592,-0.11141 -2.34321,-0.0224 -2.34321,0.91665 0,0.98244 -1.74283,2.31554 -3.04528,2.3275 -1.393661,0.0135 -1.623941,0.43739 -1.07515,1.97835 0.65048,1.82507 0.67291,4.07407 0.0494,4.79707 -0.268421,0.31103 -0.586181,1.08637 -0.705811,1.72339 -0.27813,1.47516 0.526361,1.96413 3.416121,2.07629 2.27143,0.089 3.86846,0.87926 3.86846,1.91479 0,0.35888 0.24375,1.14169 0.54207,1.73909 0.51215,1.02506 0.63552,1.07515 2.23928,0.91141 1.1402,-0.11813 2.13236,-0.51515 3.0206,-1.21048 0.72749,-0.56973 1.61572,-1.03553 1.9761,-1.03553 0.35888,0 1.2546,-0.3215 1.98956,-0.71553 0.73496,-0.39402 1.50656,-0.71701 1.71217,-0.71701 0.20561,0 1.15067,0.72599 2.09872,1.61198 1.46918,1.37422 1.9432,1.61198 3.20901,1.61198 1.24039,0 1.48563,-0.11663 1.48563,-0.70655 0,-0.7387 1.61348,-1.8004 2.73574,-1.8004 0.34169,0 0.97197,0.32823 1.40039,0.73198 0.67141,0.63103 0.90917,0.67141 1.72563,0.30056 1.94919,-0.88898 3.71594,1.08188 2.78957,3.11331 l 0,0 c -0.34393,0.75515 -0.30655,0.8688 0.2886,0.8688 0.37683,0 0.7888,-0.32748 0.9159,-0.72599 0.28487,-0.89796 1.79068,-1.9275 2.44863,-1.67329 0.26842,0.10243 0.74169,-0.11066 1.05198,-0.47328 0.31103,-0.36188 1.28301,-0.76637 2.16003,-0.89796 1.27478,-0.1914 1.56338,-0.36337 1.43403,-0.85683 -0.095,-0.36337 0.31253,-1.12301 0.99217,-1.8475 1.04225,-1.10955 1.16412,-1.47217 1.25534,-3.73986 0.0561,-1.38245 0.27365,-2.96453 0.483,-3.51781 0.21009,-0.55178 0.38206,-1.41759 0.38206,-1.92376 0,-1.14544 1.3159,-3.33313 2.00526,-3.33313 0.28187,0 0.83291,-0.20038 1.22469,-0.44486 0.56673,-0.35365 0.85683,-0.35365 1.42357,0 0.39103,0.24448 1.08562,0.44486 1.5432,0.44486 0.45757,0 1.14468,0.23627 1.52749,0.52636 0.38281,0.28935 1.06394,0.53085 1.51329,0.53758 0.5488,0.007 1.06245,0.42393 1.55816,1.26506 0.50767,0.85983 1.00113,1.25385 1.5716,1.25385 1.21124,0 1.96414,-0.36262 1.96414,-0.94655 0,-0.9645 1.1432,-2.27816 1.98208,-2.27816 1.50881,0 1.95891,0.37608 1.95891,1.6374 0,1.27628 0.73122,1.94545 2.12638,1.94545 0.53758,0 0.73945,-0.23029 0.73945,-0.84039 0,-0.46206 0.30804,-1.11852 0.68487,-1.45946 0.37608,-0.34019 0.77908,-0.99739 0.89496,-1.45945 0.24599,-0.98095 1.93648,-1.50956 3.00266,-0.93908 0.46505,0.24897 0.80001,0.24748 1.05198,-0.007 0.5787,-0.5787 2.31479,-0.20935 2.73499,0.58169 0.2086,0.39403 0.66842,1.15366 1.02132,1.6875 1.19702,1.81236 0.75515,3.86622 -0.83067,3.86622 -0.56972,0 -1.03627,0.1615 -1.03627,0.35813 0,0.19664 0.33271,0.35814 0.73945,0.35814 2.4262,0 5.19558,3.23593 3.88865,4.54436 -0.27814,0.27739 -0.26019,0.59141 0.0643,1.11104 0.37533,0.60038 0.34991,0.87927 -0.14954,1.64114 -1.21422,1.85349 -0.45907,3.09313 1.88264,3.09313 0.7387,0 1.09908,-0.17645 1.09908,-0.53907 0,-0.29608 0.32225,-1.1402 0.71627,-1.87517 0.39403,-0.73571 0.71628,-1.74955 0.71628,-2.25199 0,-0.50393 0.32299,-1.54768 0.71701,-2.32078 0.39403,-0.77309 0.71628,-1.88114 0.71628,-2.46283 0,-0.58095 0.38056,-1.71591 0.84561,-2.52116 0.46506,-0.80599 0.95254,-2.16526 1.08413,-3.0206 0.13159,-0.85534 0.59066,-2.22582 1.01983,-3.04527 0.50169,-0.95702 0.85758,-2.4606 0.99739,-4.20866 0.19066,-2.39031 0.41347,-3.04976 1.85049,-5.46474 1.45797,-2.44938 1.66208,-3.06247 1.89087,-5.68905 0.22206,-2.54358 0.39851,-3.10434 1.3002,-4.13164 0.77459,-0.88226 1.04376,-1.55142 1.04376,-2.59966 0,-1.19703 0.49869,-2.69985 1.77497,-5.3526 0.36636,-0.76187 2.05012,-1.12749 2.53013,-0.54954 0.32449,0.39104 0.56225,0.37833 1.35777,-0.0748 0.87254,-0.49646 1.16338,-0.49122 3.02509,0.0531 1.48114,0.43365 2.06059,0.77684 2.06059,1.2232 0,0.71103 3.02882,2.40377 4.06809,2.27367 0.36486,-0.0464 1.13721,-0.42019 1.71666,-0.83216 0.71403,-0.50842 1.33759,-0.67739 1.94021,-0.52636 0.94581,0.23701 2.2991,-0.29982 2.77237,-1.10058 0.15701,-0.26692 0.6931,-0.48524 1.18955,-0.48524 0.4972,0 1.15815,-0.25421 1.46918,-0.56524 0.58094,-0.58094 0.70954,-0.56748 3.14098,0.32748 1.60226,0.58992 1.68675,0.70655 2.51891,3.46248 0.64748,2.14283 1.40712,3.22397 2.2647,3.22397 0.30131,0 0.89646,0.32748 1.32263,0.72673 0.46057,0.43291 1.49311,0.81273 2.55107,0.93759 1.34656,0.15925 1.73086,0.13757 2.35517,-0.43814 -0.0269,0.0232 -0.0561,0.0449 -0.0778,0.0748 -0.46804,0.65272 1.66656,2.15778 1.9776,2.98247 0.3043,0.80449 0.27364,1.21048 -0.15851,2.10245 -0.52636,1.08787 -0.52113,1.11404 0.35589,1.69274 0.48973,0.32299 1.21647,0.58767 1.61423,0.58916 0.9802,0 3.70547,2.31779 3.73164,3.16864 0.012,0.37459 -0.15776,0.85908 -0.37683,1.07815 -0.30954,0.30879 -0.30954,0.48599 0,0.79552 0.21907,0.21832 0.39776,0.69384 0.39776,1.05572 0,0.73795 1.22544,2.19367 1.84675,2.19367 0.22206,0 0.49347,-0.23327 0.60338,-0.51888 0.13009,-0.3372 0.51589,-0.483 1.10132,-0.41496 0.75291,0.0875 0.97123,0.35066 1.32787,1.59778 0.7058,2.46881 0.65197,2.40676 1.58207,1.79665 0.7716,-0.50617 0.89646,-0.50692 1.65834,-0.007 0.45309,0.29682 0.91516,0.90319 1.02656,1.34731 0.21907,0.87253 -0.32748,2.87256 -1.11478,4.08379 -0.43515,0.66991 -0.43216,0.81945 0.0269,1.32637 0.41646,0.45982 1.04226,0.563 3.1978,0.52636 2.9421,-0.0501 3.30696,-0.22654 4.54511,-2.18844 0.57646,-0.91141 1.01684,-1.24787 1.63591,-1.24787 1.4303,0 2.0404,-0.57645 2.64527,-2.50171 0.48449,-1.54096 0.78431,-1.95218 1.79591,-2.46882 0.66767,-0.34019 1.40862,-0.85384 1.64638,-1.1402 0.9615,-1.15889 2.34171,-0.47253 2.34171,1.16338 0,0.45159 0.23327,0.63627 0.80375,0.63627 0.45084,0 1.23964,0.43739 1.79815,0.99515 0.65646,0.65646 1.32787,0.99441 1.97461,0.99441 1.39964,0 1.81535,0.71328 1.89012,3.2449 0.0366,1.22544 0.089,2.40452 0.11589,2.6206 l 0,7.4e-4 c 0.0344,0.27066 0.43589,0.323 1.29272,0.16599 1.53572,-0.28113 3.34584,-0.2587 7.2472,0.0912 2.16377,0.1944 3.08565,0.16374 3.25313,-0.10766 0.1286,-0.20785 0.5129,-0.37758 0.85309,-0.37758 0.34094,0 1.07067,-0.54655 1.62096,-1.21497 0.56075,-0.67963 1.33609,-1.23964 1.76077,-1.27029 0.62132,-0.0464 0.803,-0.31328 1.00188,-1.4774 0.27141,-1.5918 1.07516,-2.41349 2.12788,-2.17499 0.60263,0.13683 0.97198,-0.33047 2.56751,-3.2449 1.24562,-2.27517 2.19143,-3.5978 2.85088,-3.98734 1.96937,-1.16338 3.12527,-2.41125 5.35857,-5.78101 l 2.27592,-3.43407 -0.49421,-1.18356 c -0.84786,-2.02769 -0.64748,-3.17089 0.8673,-4.96306 0.74917,-0.88674 1.99928,-2.96303 2.77836,-4.61539 0.79328,-1.68151 1.84899,-3.36827 2.39853,-3.83033 l 0.9817,-0.82618 -1.27329,-1.43553 c -1.05272,-1.18581 -1.27329,-1.67927 -1.27329,-2.84639 0,-1.09534 0.16748,-1.52301 0.74618,-1.90956 1.24188,-0.82767 4.45015,-3.71967 9.97695,-8.99077 2.88752,-2.75518 5.42512,-5.12007 5.63746,-5.2554 0.21234,-0.13533 1.4303,-0.64375 2.70733,-1.12973 2.68489,-1.02132 4.1451,-1.95068 4.1451,-2.6363 0,-0.26468 0.3372,-0.63627 0.74991,-0.82394 0.41272,-0.18841 1.00263,-0.78206 1.31142,-1.31964 0.56375,-0.98169 1.31217,-1.4303 2.98621,-1.78843 0.53608,-0.11365 1.23815,-0.68562 1.72713,-1.40488 l 0.82393,-1.21198 -0.98095,-1.11628 c -0.53907,-0.61384 -0.9802,-1.49385 -0.9802,-1.95441 0,-1.20226 0.87777,-3.95669 2.009,-6.30289 0.53683,-1.11254 0.97572,-2.42172 0.97572,-2.90995 0,-1.34132 -1.12974,-4.27895 -2.2991,-5.97916 l -1.04375,-1.51554 1.30693,-1.74432 c 0.71852,-0.96001 2.17947,-2.58471 3.2464,-3.61126 1.81311,-1.74507 2.07031,-1.8804 3.92977,-2.06732 1.89386,-0.19065 3.13126,-0.57571 8.75002,-2.72228 2.19442,-0.83739 2.62209,-1.15515 4.10398,-3.04004 1.54769,-1.97012 3.53126,-3.40341 4.7081,-3.40341 0.73123,0 0.63178,-0.43365 -0.29832,-1.30768 l -0.80898,-0.76038 0.79328,-2.1862 c 0.82543,-2.27517 1.73759,-3.27182 3.14696,-3.44004 0.46131,-0.0553 0.79103,-0.28711 0.74244,-0.52337 -0.20188,-0.99142 0.99216,-2.46508 2.51367,-3.1036 2.61312,-1.09683 3.47967,-1.64189 5.11633,-3.21948 1.00114,-0.96375 1.57535,-1.80189 1.57535,-2.29536 0,-0.99216 5.0625,-6.25877 7.62702,-7.93431 1.00337,-0.6557 2.08152,-1.50656 2.39629,-1.88937 0.6744,-0.82169 0.76412,-3.01611 0.20038,-4.8995 -0.34169,-1.14095 -0.30879,-1.39964 0.28037,-2.19367 0.3858,-0.52113 1.21273,-1.04376 1.96265,-1.24114 0.71253,-0.18767 1.85946,-0.55552 2.54956,-0.81721 1.11553,-0.42243 1.23217,-0.57421 1.05946,-1.36375 -0.15776,-0.71702 -0.0135,-1.01834 0.74617,-1.55965 0.51739,-0.3686 1.48563,-0.77235 2.15106,-0.89721 1.56488,-0.29383 1.80787,-0.98244 0.7058,-2.00451 -1.03253,-0.95628 -1.16188,-0.97123 -2.49648,-0.28113 -0.90468,0.46805 -7.09243,1.12002 -11.18744,1.17908 -1.51179,0.0217 -2.43442,-1.09309 -2.20563,-2.6662 0.19066,-1.31366 1.66357,-3.68453 2.28863,-3.68453 0.23701,0 0.68412,-0.5301 0.99291,-1.17759 0.30879,-0.64748 0.97422,-1.4146 1.47889,-1.7032 0.74693,-0.42842 0.91665,-0.75889 0.91665,-1.78096 0,-1.56412 0.89945,-2.63329 2.21386,-2.63329 0.5316,0 1.45498,-0.37309 2.05311,-0.82843 0.5974,-0.45608 1.25909,-0.82917 1.46993,-0.82917 0.51664,0 0.49122,-0.14505 -0.29832,-1.69422 -1.36226,-2.67069 -0.79029,-4.9668 1.35628,-5.43783 0.51515,-0.1129 1.11478,-0.4202 1.33235,-0.68188 0.55702,-0.66992 1.93947,-0.59141 3.47668,0.20038 1.98059,1.01907 3.67781,1.12599 5.79073,0.36411 2.16452,-0.77683 2.48976,-1.19478 2.1877,-2.80527 z"
     inkscape:connector-curvature="0"
     style="fill:#f7eee5;fill-opacity:1;stroke:#d4c8b0;stroke-width:1.60000002;stroke-miterlimit:4;stroke-opacity:1;stroke-dasharray:none" />
  <flowRoot
     xml:space="preserve"
     id="flowRoot4233"
     style="font-size:40px;font-style:normal;font-weight:normal;line-height:125%;letter-spacing:0px;word-spacing:0px;fill:#3a2900;fill-opacity:1;stroke:none;font-family:Sans"
     transform="matrix(2.2079264,0,0,2.2079264,-248.92381,-582.81416)"><flowRegion
       id="flowRegion4235"><rect
         id="rect4237"
         width="422.24377"
         height="138.3909"
         x="120.20815"
         y="296.76807"
         style="fill:#3a2900;fill-opacity:1;stroke:none" /></flowRegion><flowPara
       id="flowPara4239"
       style="font-style:normal;font-variant:normal;font-weight:normal;font-stretch:normal;line-height:128.99999619%;letter-spacing:0px;fill:#3a2900;fill-opacity:1;stroke:none;font-family:Ubuntu Mono;-inkscape-font-specification:Ubuntu Mono">OpenData</flowPara></flowRoot>  <flowRoot
     xml:space="preserve"
     id="flowRoot4233-4"
     style="font-size:40px;font-style:normal;font-weight:normal;line-height:125%;letter-spacing:0px;word-spacing:0px;fill:#3f600f;fill-opacity:1;stroke:none;font-family:Sans"
     transform="matrix(2.2079264,0,0,2.2079264,-266.12495,-491.62888)"><flowRegion
       id="flowRegion4235-9"><rect
         id="rect4237-3"
         width="422.24377"
         height="138.3909"
         x="120.20815"
         y="296.76807"
         style="fill:#3f600f;fill-opacity:1;stroke:none" /></flowRegion><flowPara
       id="flowPara4239-0"
       style="font-size:16.30489159px;font-style:normal;font-variant:normal;font-weight:normal;font-stretch:normal;fill:#3f600f;fill-opacity:1;stroke:none;font-family:Ubuntu Mono;-inkscape-font-specification:Ubuntu Mono">Bourgogne-FrancheComté</flowPara></flowRoot>  <flowRoot
     xml:space="preserve"
     id="flowRoot4306"
     style="font-size:40px;font-style:normal;font-weight:normal;line-height:125%;letter-spacing:0px;word-spacing:0px;fill:#000000;fill-opacity:1;stroke:none;font-family:Sans"
     transform="translate(-118.1679,-194.85198)"><flowRegion
       id="flowRegion4308"><rect
         id="rect4310"
         width="671.75146"
         height="469.72095"
         x="5.0507627"
         y="161.40764" /></flowRegion><flowPara
       id="flowPara4312" /></flowRoot></svg>
